<svg width="484" height="360" viewBox="0 0 484 360" fill="none" xmlns="http://www.w3.org/2000/svg">
<g clip-path="url(#clip0_8013_451)">
<g opacity="0.75" filter="url(#filter0_f_8013_451)">
<path d="M81.9222 45C81.9222 38.3726 87.2948 33 93.9222 33H440C446.627 33 452 38.3726 452 45V409C452 415.627 446.627 421 440 421H93.9222C87.2948 421 81.9222 415.627 81.9222 409V45Z" fill="white"/>
<path d="M93.9222 30.5C85.9141 30.5 79.4222 36.9919 79.4222 45V409C79.4222 417.008 85.9141 423.5 93.9222 423.5H440C448.008 423.5 454.5 417.008 454.5 409V45C454.5 36.9919 448.008 30.5 440 30.5H93.9222Z" stroke="url(#paint0_linear_8013_451)" stroke-width="5"/>
</g>
<path d="M44 32.5C37.0964 32.5 31.5 38.0964 31.5 45V419C31.5 425.904 37.0964 431.5 44 431.5H440C446.904 431.5 452.5 425.904 452.5 419V45C452.5 38.0964 446.904 32.5 440 32.5H44Z" fill="white"/>
<path d="M44 32.5C37.0964 32.5 31.5 38.0964 31.5 45V419C31.5 425.904 37.0964 431.5 44 431.5H440C446.904 431.5 452.5 425.904 452.5 419V45C452.5 38.0964 446.904 32.5 440 32.5H44Z" stroke="url(#paint1_linear_8013_451)"/>
<rect y="195" width="484" height="226" fill="url(#paint2_linear_8013_451)"/>
<path d="M374.5 184.504C374.5 215.983 348.76 241.509 317 241.509C285.24 241.509 259.5 215.983 259.5 184.504C259.5 153.026 285.24 127.5 317 127.5C348.76 127.5 374.5 153.026 374.5 184.504Z" stroke="url(#paint3_linear_8013_451)"/>
<circle cx="316.5" cy="184.5" r="81" stroke="url(#paint4_linear_8013_451)"/>
<circle cx="316.5" cy="184.5" r="39" stroke="url(#paint5_linear_8013_451)"/>
<path d="M168 177.959C167.148 177.959 166.303 178.127 165.516 178.453C164.728 178.779 164.012 179.257 163.41 179.86C162.807 180.463 162.328 181.179 162.002 181.966C161.676 182.754 161.508 183.598 161.508 184.451C161.508 185.304 161.676 186.148 162.002 186.936C162.328 187.723 162.807 188.439 163.41 189.042C164.012 189.645 164.728 190.123 165.516 190.449C166.303 190.775 167.148 190.943 168 190.943C169.722 190.943 171.374 190.259 172.591 189.042C173.809 187.824 174.493 186.173 174.493 184.451C174.493 182.729 173.809 181.078 172.591 179.86C171.374 178.643 169.722 177.959 168 177.959ZM163.508 184.451C163.508 183.26 163.981 182.117 164.824 181.274C165.666 180.432 166.809 179.959 168 179.959C169.192 179.959 170.334 180.432 171.177 181.274C172.019 182.117 172.493 183.26 172.493 184.451C172.493 185.642 172.019 186.785 171.177 187.628C170.334 188.47 169.192 188.943 168 188.943C166.809 188.943 165.666 188.47 164.824 187.628C163.981 186.785 163.508 185.642 163.508 184.451Z" fill="url(#paint6_linear_8013_451)"/>
<path fill-rule="evenodd" clip-rule="evenodd" d="M164.409 171.136C165.463 167.556 170.54 167.556 171.594 171.136L171.782 171.774C171.855 172.024 171.984 172.255 172.158 172.448C172.332 172.642 172.548 172.794 172.788 172.894C173.029 172.994 173.289 173.038 173.549 173.025C173.809 173.011 174.063 172.939 174.292 172.814L174.876 172.496C178.154 170.71 181.744 174.297 179.958 177.577L179.638 178.161C179.514 178.39 179.442 178.643 179.428 178.904C179.414 179.164 179.459 179.424 179.558 179.664C179.658 179.905 179.811 180.12 180.004 180.295C180.198 180.469 180.428 180.597 180.678 180.671L181.316 180.859C184.897 181.913 184.897 186.989 181.316 188.043L180.678 188.231C180.428 188.305 180.198 188.434 180.004 188.608C179.811 188.782 179.658 188.997 179.558 189.238C179.459 189.479 179.414 189.739 179.428 189.999C179.442 190.259 179.514 190.513 179.638 190.742L179.956 191.326C181.744 194.604 178.156 198.194 174.876 196.408L174.292 196.088C174.063 195.963 173.809 195.891 173.549 195.878C173.289 195.864 173.029 195.908 172.788 196.008C172.548 196.108 172.332 196.26 172.158 196.454C171.984 196.648 171.855 196.878 171.782 197.128L171.594 197.766C170.54 201.346 165.463 201.346 164.409 197.766L164.221 197.128C164.148 196.878 164.019 196.648 163.845 196.454C163.671 196.26 163.455 196.108 163.215 196.008C162.974 195.908 162.714 195.864 162.454 195.878C162.194 195.891 161.94 195.963 161.711 196.088L161.127 196.406C157.847 198.194 154.261 194.606 156.045 191.326L156.365 190.742C156.489 190.513 156.561 190.259 156.575 189.999C156.589 189.739 156.544 189.479 156.444 189.238C156.345 188.997 156.192 188.782 155.999 188.608C155.805 188.434 155.575 188.305 155.325 188.231L154.687 188.043C151.106 186.989 151.106 181.913 154.687 180.859L155.325 180.671C155.575 180.597 155.805 180.469 155.999 180.295C156.192 180.12 156.345 179.905 156.444 179.664C156.544 179.424 156.589 179.164 156.575 178.904C156.561 178.643 156.489 178.39 156.365 178.161L156.047 177.577C154.261 174.299 157.847 170.71 161.127 172.494L161.711 172.814C161.94 172.939 162.194 173.011 162.454 173.025C162.714 173.038 162.974 172.994 163.215 172.894C163.455 172.794 163.671 172.642 163.845 172.448C164.019 172.255 164.148 172.024 164.221 171.774L164.409 171.136ZM164.824 181.274C163.981 182.117 163.508 183.26 163.508 184.451C163.508 185.642 163.981 186.785 164.824 187.628C165.666 188.47 166.809 188.943 168 188.943C169.192 188.943 170.334 188.47 171.177 187.628C172.019 186.785 172.493 185.642 172.493 184.451C172.493 183.26 172.019 182.117 171.177 181.274C170.334 180.432 169.192 179.959 168 179.959C166.809 179.959 165.666 180.432 164.824 181.274Z" fill="url(#paint7_linear_8013_451)"/>
<path d="M168 177.959C167.148 177.959 166.303 178.127 165.516 178.453C164.728 178.779 164.012 179.257 163.41 179.86C162.807 180.463 162.328 181.179 162.002 181.966C161.676 182.754 161.508 183.598 161.508 184.451C161.508 185.304 161.676 186.148 162.002 186.936C162.328 187.723 162.807 188.439 163.41 189.042C164.012 189.645 164.728 190.123 165.516 190.449C166.303 190.775 167.148 190.943 168 190.943C169.722 190.943 171.374 190.259 172.591 189.042C173.809 187.824 174.493 186.173 174.493 184.451C174.493 182.729 173.809 181.078 172.591 179.86C171.374 178.643 169.722 177.959 168 177.959ZM163.508 184.451C163.508 183.26 163.981 182.117 164.824 181.274C165.666 180.432 166.809 179.959 168 179.959C169.192 179.959 170.334 180.432 171.177 181.274C172.019 182.117 172.493 183.26 172.493 184.451C172.493 185.642 172.019 186.785 171.177 187.628C170.334 188.47 169.192 188.943 168 188.943C166.809 188.943 165.666 188.47 164.824 187.628C163.981 186.785 163.508 185.642 163.508 184.451Z" fill="url(#paint8_linear_8013_451)"/>
<path d="M171.594 171.136C170.54 167.556 165.463 167.556 164.409 171.136L164.221 171.774C164.148 172.024 164.019 172.255 163.845 172.448C163.671 172.642 163.455 172.794 163.215 172.894C162.974 172.994 162.714 173.038 162.454 173.025C162.194 173.011 161.94 172.939 161.711 172.814L161.127 172.494C157.847 170.71 154.261 174.299 156.047 177.577L156.365 178.161C156.489 178.39 156.561 178.643 156.575 178.904C156.589 179.164 156.544 179.424 156.444 179.664C156.345 179.905 156.192 180.12 155.999 180.295C155.805 180.469 155.575 180.597 155.325 180.671L154.687 180.859C151.106 181.913 151.106 186.989 154.687 188.043L155.325 188.231C155.575 188.305 155.805 188.434 155.999 188.608C156.192 188.782 156.345 188.997 156.444 189.238C156.544 189.479 156.589 189.739 156.575 189.999C156.561 190.259 156.489 190.513 156.365 190.742L156.045 191.326C154.261 194.606 157.847 198.194 161.127 196.406L161.711 196.088C161.94 195.963 162.194 195.891 162.454 195.878C162.714 195.864 162.974 195.908 163.215 196.008C163.455 196.108 163.671 196.26 163.845 196.454C164.019 196.648 164.148 196.878 164.221 197.128L164.409 197.766C165.463 201.346 170.54 201.346 171.594 197.766L171.782 197.128C171.855 196.878 171.984 196.648 172.158 196.454C172.332 196.26 172.548 196.108 172.788 196.008C173.029 195.908 173.289 195.864 173.549 195.878C173.809 195.891 174.063 195.963 174.292 196.088L174.876 196.408C178.156 198.194 181.744 194.604 179.956 191.326L179.638 190.742C179.514 190.513 179.442 190.259 179.428 189.999C179.414 189.739 179.459 189.479 179.558 189.238C179.658 188.997 179.811 188.782 180.004 188.608C180.198 188.434 180.428 188.305 180.678 188.231L181.316 188.043C184.897 186.989 184.897 181.913 181.316 180.859L180.678 180.671C180.428 180.597 180.198 180.469 180.004 180.295C179.811 180.12 179.658 179.905 179.558 179.664C179.459 179.424 179.414 179.164 179.428 178.904C179.442 178.643 179.514 178.39 179.638 178.161L179.958 177.577C181.744 174.297 178.154 170.71 174.876 172.496L174.292 172.814C174.063 172.939 173.809 173.011 173.549 173.025C173.289 173.038 173.029 172.994 172.788 172.894C172.548 172.794 172.332 172.642 172.158 172.448C171.984 172.255 171.855 172.024 171.782 171.774L171.594 171.136ZM166.327 171.702C166.819 170.032 169.184 170.032 169.676 171.702L169.864 172.34C170.022 172.877 170.298 173.371 170.671 173.786C171.045 174.202 171.507 174.529 172.024 174.743C172.54 174.956 173.098 175.052 173.656 175.022C174.215 174.992 174.759 174.838 175.25 174.571L175.832 174.251C177.36 173.42 179.032 175.091 178.2 176.621L177.882 177.205C177.615 177.696 177.461 178.24 177.432 178.798C177.402 179.356 177.498 179.914 177.712 180.43C177.926 180.946 178.253 181.408 178.668 181.782C179.084 182.155 179.578 182.431 180.114 182.589L180.75 182.777C182.42 183.269 182.42 185.633 180.75 186.125L180.112 186.313C179.576 186.471 179.082 186.747 178.666 187.121C178.251 187.495 177.924 187.957 177.71 188.474C177.496 188.99 177.401 189.548 177.43 190.106C177.46 190.664 177.615 191.209 177.882 191.7L178.202 192.282C179.032 193.81 177.362 195.482 175.832 194.65L175.25 194.332C174.759 194.064 174.214 193.91 173.656 193.88C173.098 193.851 172.54 193.947 172.023 194.161C171.507 194.375 171.045 194.702 170.671 195.117C170.297 195.533 170.021 196.028 169.864 196.564L169.676 197.2C169.184 198.87 166.819 198.87 166.327 197.2L166.139 196.562C165.981 196.026 165.705 195.532 165.332 195.117C164.958 194.701 164.496 194.375 163.98 194.161C163.464 193.947 162.906 193.851 162.348 193.881C161.79 193.911 161.246 194.065 160.755 194.332L160.171 194.652C158.643 195.482 156.971 193.812 157.803 192.282L158.121 191.7C158.389 191.209 158.543 190.664 158.573 190.106C158.603 189.547 158.508 188.989 158.294 188.472C158.08 187.956 157.753 187.493 157.337 187.119C156.921 186.745 156.427 186.469 155.891 186.311L155.253 186.123C153.583 185.631 153.583 183.267 155.253 182.775L155.891 182.587C156.426 182.429 156.92 182.153 157.335 181.779C157.75 181.406 158.077 180.944 158.291 180.428C158.504 179.912 158.6 179.355 158.571 178.797C158.541 178.24 158.388 177.695 158.121 177.205L157.801 176.621C156.971 175.093 158.641 173.42 160.171 174.253L160.755 174.571C161.246 174.838 161.79 174.992 162.348 175.021C162.906 175.051 163.464 174.955 163.98 174.741C164.496 174.528 164.958 174.201 165.332 173.786C165.705 173.37 165.981 172.876 166.139 172.34L166.327 171.702Z" fill="url(#paint9_linear_8013_451)"/>
<path d="M168.278 151.947C167.952 152.709 168.304 153.591 169.066 153.917C169.827 154.243 170.709 153.891 171.035 153.129L168.278 151.947ZM199.112 117.806L198.304 116.542L199.112 117.806ZM242.997 105.636L243.038 104.136L242.997 105.636ZM286.133 120.237L287.011 119.02L287.011 119.02L286.133 120.237ZM313.604 156.559L315.114 139.305L299.416 146.624L313.604 156.559ZM171.035 153.129C177.032 139.138 187.096 127.271 199.92 119.069L198.304 116.542C184.973 125.068 174.512 137.403 168.278 151.947L171.035 153.129ZM199.92 119.069C212.745 110.868 227.738 106.71 242.955 107.135L243.038 104.136C227.22 103.694 211.635 108.017 198.304 116.542L199.92 119.069ZM242.955 107.135C258.171 107.56 272.909 112.548 285.256 121.453L287.011 119.02C274.176 109.764 258.856 104.578 243.038 104.136L242.955 107.135ZM285.256 121.453C294 127.76 301.259 135.825 306.601 145.076L309.199 143.576C303.647 133.959 296.101 125.576 287.011 119.02L285.256 121.453Z" fill="url(#paint10_linear_8013_451)"/>
<path d="M314.936 213.981C315.249 213.214 314.881 212.339 314.114 212.026C313.347 211.713 312.472 212.081 312.159 212.848L314.936 213.981ZM284.703 248.656L285.533 249.905L284.703 248.656ZM241.037 261.59L241.021 263.09L241.037 261.59ZM197.652 247.744L196.796 248.976L196.796 248.976L197.652 247.744ZM169.552 211.907L168.343 229.185L183.911 221.592L169.552 211.907ZM312.159 212.848C306.407 226.942 296.552 238.982 283.873 247.407L285.533 249.905C298.713 241.148 308.957 228.632 314.936 213.981L312.159 212.848ZM283.873 247.407C271.193 255.831 256.275 260.25 241.053 260.09L241.021 263.09C256.845 263.256 272.352 258.662 285.533 249.905L283.873 247.407ZM241.053 260.09C225.831 259.931 211.008 255.2 198.508 246.513L196.796 248.976C209.79 258.007 225.198 262.924 241.021 263.09L241.053 260.09ZM198.508 246.513C189.655 240.359 182.256 232.422 176.754 223.266L174.183 224.811C179.902 234.329 187.593 242.58 196.796 248.976L198.508 246.513Z" fill="url(#paint11_linear_8013_451)"/>
<path d="M323.162 179.428C323.262 179.33 323.38 179.252 323.511 179.199C323.642 179.145 323.782 179.118 323.924 179.118C324.066 179.118 324.206 179.145 324.337 179.199C324.468 179.252 324.586 179.33 324.685 179.428C325.101 179.836 325.107 180.496 324.7 180.911L316.099 190.78C316.001 190.884 315.883 190.967 315.751 191.026C315.619 191.084 315.476 191.115 315.331 191.118C315.186 191.12 315.042 191.094 314.907 191.041C314.773 190.988 314.652 190.908 314.55 190.808L309.316 185.66C309.115 185.461 309.001 185.192 309.001 184.912C309.001 184.632 309.115 184.364 309.316 184.164C309.416 184.065 309.534 183.987 309.665 183.934C309.796 183.881 309.936 183.853 310.078 183.853C310.22 183.853 310.36 183.881 310.491 183.934C310.622 183.987 310.74 184.065 310.839 184.164L315.279 188.531L323.133 179.459L323.162 179.428Z" fill="url(#paint12_linear_8013_451)"/>
<path fill-rule="evenodd" clip-rule="evenodd" d="M324.685 179.428C324.586 179.33 324.468 179.252 324.337 179.199C324.206 179.145 324.066 179.118 323.924 179.118C323.782 179.118 323.642 179.145 323.511 179.199C323.38 179.252 323.262 179.33 323.162 179.428L323.133 179.459L315.279 188.531L310.839 184.164C310.74 184.065 310.622 183.987 310.491 183.934C310.36 183.881 310.22 183.853 310.078 183.853C309.936 183.853 309.796 183.881 309.665 183.934C309.534 183.987 309.416 184.065 309.316 184.164C309.115 184.364 309.001 184.632 309.001 184.912C309.001 185.192 309.115 185.461 309.316 185.66L314.55 190.808C314.652 190.908 314.773 190.988 314.907 191.041C315.042 191.094 315.186 191.12 315.331 191.118C315.476 191.115 315.619 191.084 315.751 191.026C315.883 190.967 316.001 190.884 316.099 190.78L324.7 180.911C325.107 180.496 325.101 179.836 324.685 179.428Z" fill="url(#paint13_linear_8013_451)"/>
<path fill-rule="evenodd" clip-rule="evenodd" d="M317.001 200.451C325.838 200.451 333.001 193.288 333.001 184.451C333.001 175.615 325.838 168.451 317.001 168.451C308.165 168.451 301.001 175.615 301.001 184.451C301.001 193.288 308.165 200.451 317.001 200.451Z" fill="url(#paint14_linear_8013_451)"/>
<path d="M323.162 179.428C323.262 179.33 323.38 179.252 323.511 179.199C323.642 179.145 323.782 179.118 323.924 179.118C324.066 179.118 324.206 179.145 324.337 179.199C324.468 179.252 324.586 179.33 324.685 179.428C325.101 179.836 325.107 180.496 324.7 180.911L316.099 190.78C316.001 190.884 315.883 190.967 315.751 191.026C315.619 191.084 315.476 191.115 315.331 191.118C315.186 191.12 315.042 191.094 314.907 191.041C314.773 190.988 314.652 190.908 314.55 190.808L309.316 185.66C309.115 185.461 309.001 185.192 309.001 184.912C309.001 184.632 309.115 184.364 309.316 184.164C309.416 184.065 309.534 183.987 309.665 183.934C309.796 183.881 309.936 183.853 310.078 183.853C310.22 183.853 310.36 183.881 310.491 183.934C310.622 183.987 310.74 184.065 310.839 184.164L315.279 188.531L323.133 179.459L323.162 179.428Z" fill="url(#paint15_linear_8013_451)"/>
<path fill-rule="evenodd" clip-rule="evenodd" d="M324.685 179.428C324.586 179.33 324.468 179.252 324.337 179.199C324.206 179.145 324.066 179.118 323.924 179.118C323.782 179.118 323.642 179.145 323.511 179.199C323.38 179.252 323.262 179.33 323.162 179.428L323.133 179.459L315.279 188.531L310.839 184.164C310.74 184.065 310.622 183.987 310.491 183.934C310.36 183.881 310.22 183.853 310.078 183.853C309.936 183.853 309.796 183.881 309.665 183.934C309.534 183.987 309.416 184.065 309.316 184.164C309.115 184.364 309.001 184.632 309.001 184.912C309.001 185.192 309.115 185.461 309.316 185.66L314.55 190.808C314.652 190.908 314.773 190.988 314.907 191.041C315.042 191.094 315.186 191.12 315.331 191.118C315.476 191.115 315.619 191.084 315.751 191.026C315.883 190.967 316.001 190.884 316.099 190.78L324.7 180.911C325.107 180.496 325.101 179.836 324.685 179.428Z" fill="url(#paint16_linear_8013_451)"/>
<path fill-rule="evenodd" clip-rule="evenodd" d="M317.001 198.451C324.733 198.451 331.001 192.183 331.001 184.451C331.001 176.719 324.733 170.451 317.001 170.451C309.269 170.451 303.001 176.719 303.001 184.451C303.001 192.183 309.269 198.451 317.001 198.451ZM317.001 200.451C325.838 200.451 333.001 193.288 333.001 184.451C333.001 175.615 325.838 168.451 317.001 168.451C308.165 168.451 301.001 175.615 301.001 184.451C301.001 193.288 308.165 200.451 317.001 200.451Z" fill="url(#paint17_linear_8013_451)"/>
<path d="M86 172.5C86 171.672 86.6716 171 87.5 171H144.5C145.328 171 146 171.672 146 172.5C146 173.328 145.328 174 144.5 174H87.5C86.6716 174 86 173.328 86 172.5Z" fill="url(#paint18_linear_8013_451)"/>
<path d="M86 184.5C86 183.672 86.6716 183 87.5 183H140.5C141.328 183 142 183.672 142 184.5C142 185.328 141.328 186 140.5 186H87.5C86.6716 186 86 185.328 86 184.5Z" fill="url(#paint19_linear_8013_451)"/>
<path d="M86 196.5C86 195.672 86.6716 195 87.5 195H144.5C145.328 195 146 195.672 146 196.5C146 197.328 145.328 198 144.5 198H87.5C86.6716 198 86 197.328 86 196.5Z" fill="url(#paint20_linear_8013_451)"/>
<path d="M215.07 168.558C211.542 175.995 207.983 183.772 205.025 191.472C208.537 185.368 211.85 178.799 214.931 172.416C217.442 178.706 220.061 184.965 223.019 191.069C220.739 183.431 217.935 175.979 215.07 168.558Z" fill="#C3DCDE"/>
<path d="M260.98 191.069C263.907 185.073 266.603 178.659 269.068 172.416C272.18 178.861 275.4 185.259 278.974 191.472C275.97 183.679 272.488 176.103 268.929 168.558C266.079 175.871 263.229 183.524 260.98 191.069Z" fill="#C3DCDE"/>
<path d="M207.413 195.438C212.635 195.237 219.676 194.478 224.483 193.997C218.012 193.161 210.756 192.541 204.008 192.479C203.777 198.847 208.553 204.393 215.039 204.145C220.292 204.068 225.022 199.218 224.483 194.013C222.403 203.231 209.924 204.006 207.413 195.438Z" fill="#C3DCDE"/>
<path d="M259.516 193.997C264.292 194.478 271.379 195.237 276.586 195.438C274.075 204.006 261.596 203.247 259.516 193.997C258.977 199.203 263.707 204.068 268.96 204.13C275.446 204.393 280.237 198.831 279.991 192.464C273.243 192.541 265.987 193.161 259.516 193.997Z" fill="#C3DCDE"/>
<path d="M242 207.352C243.279 194.044 243.925 180.643 243.016 167.303C245.327 164.561 247.884 161.772 250.796 160.13C258.284 155.405 262.012 166.9 269.114 166.869C272.827 166.885 277.264 164.391 277.033 160.239C276.509 164.112 272.58 165.692 269.114 165.351C263.691 164.453 261.503 157.217 255.587 156.381C250.303 155.668 246.113 159.402 242.723 163.027C242.631 161.865 242.492 160.703 242.384 159.526C243.355 159.371 244.295 158.658 244.926 157.295C243.509 154.227 240.52 154.243 239.088 157.295C239.719 158.643 240.659 159.371 241.63 159.526C241.522 160.672 241.383 161.803 241.291 162.95C236.391 157.713 229.351 153.019 223.05 159.247C220.4 161.416 218.366 164.964 214.885 165.336C211.418 165.676 207.505 164.096 206.966 160.223C206.719 164.391 211.187 166.885 214.885 166.869C219.044 166.931 221.663 163.291 224.575 161.122C230.707 155.684 236.761 162.284 240.967 167.303C240.074 180.643 240.706 194.044 242 207.352Z" fill="url(#paint21_linear_8013_451)"/>
</g>
<defs>
<filter id="filter0_f_8013_451" x="46.9222" y="-2" width="440.078" height="458" filterUnits="userSpaceOnUse" color-interpolation-filters="sRGB">
<feFlood flood-opacity="0" result="BackgroundImageFix"/>
<feBlend mode="normal" in="SourceGraphic" in2="BackgroundImageFix" result="shape"/>
<feGaussianBlur stdDeviation="15" result="effect1_foregroundBlur_8013_451"/>
</filter>
<linearGradient id="paint0_linear_8013_451" x1="99.8292" y1="33" x2="345.813" y2="309.354" gradientUnits="userSpaceOnUse">
<stop stop-color="#F4B62B"/>
<stop offset="0.52" stop-color="#BC52AD"/>
<stop offset="1" stop-color="white"/>
</linearGradient>
<linearGradient id="paint1_linear_8013_451" x1="32.4233" y1="33" x2="525.057" y2="290.326" gradientUnits="userSpaceOnUse">
<stop stop-color="#F4B62B"/>
<stop offset="0.610758" stop-color="#BC52AD"/>
<stop offset="0.95" stop-color="white"/>
</linearGradient>
<linearGradient id="paint2_linear_8013_451" x1="242" y1="235.629" x2="234.773" y2="307.727" gradientUnits="userSpaceOnUse">
<stop stop-color="white" stop-opacity="0.05"/>
<stop offset="1" stop-color="white"/>
</linearGradient>
<linearGradient id="paint3_linear_8013_451" x1="375" y1="183.694" x2="331.376" y2="184.504" gradientUnits="userSpaceOnUse">
<stop stop-color="#C3DCDE"/>
<stop offset="1" stop-color="white"/>
</linearGradient>
<linearGradient id="paint4_linear_8013_451" x1="398" y1="183.352" x2="317.681" y2="183.352" gradientUnits="userSpaceOnUse">
<stop stop-color="#DFECEE"/>
<stop offset="1" stop-color="white"/>
</linearGradient>
<linearGradient id="paint5_linear_8013_451" x1="356" y1="183.944" x2="329.838" y2="184.003" gradientUnits="userSpaceOnUse">
<stop stop-color="#9AC2C6"/>
<stop offset="1" stop-color="white"/>
</linearGradient>
<linearGradient id="paint6_linear_8013_451" x1="160.5" y1="172" x2="172.5" y2="195" gradientUnits="userSpaceOnUse">
<stop stop-color="#4F868E"/>
<stop offset="1" stop-color="#C3DCDE"/>
</linearGradient>
<linearGradient id="paint7_linear_8013_451" x1="160.5" y1="172" x2="172.5" y2="195" gradientUnits="userSpaceOnUse">
<stop stop-color="#4F868E"/>
<stop offset="1" stop-color="#C3DCDE"/>
</linearGradient>
<linearGradient id="paint8_linear_8013_451" x1="156.668" y1="172.451" x2="179.335" y2="195.785" gradientUnits="userSpaceOnUse">
<stop stop-color="#314248"/>
<stop offset="1" stop-color="#4F868E"/>
</linearGradient>
<linearGradient id="paint9_linear_8013_451" x1="156.668" y1="172.451" x2="179.335" y2="195.785" gradientUnits="userSpaceOnUse">
<stop stop-color="#314248"/>
<stop offset="1" stop-color="#4F868E"/>
</linearGradient>
<linearGradient id="paint10_linear_8013_451" x1="169.31" y1="157.597" x2="315.019" y2="157.597" gradientUnits="userSpaceOnUse">
<stop stop-color="#DFECEE"/>
<stop offset="1" stop-color="#4F868E"/>
</linearGradient>
<linearGradient id="paint11_linear_8013_451" x1="313.671" y1="211.135" x2="168.981" y2="211.135" gradientUnits="userSpaceOnUse">
<stop stop-color="#DFECEE"/>
<stop offset="1" stop-color="#4F868E"/>
</linearGradient>
<linearGradient id="paint12_linear_8013_451" x1="311" y1="170.5" x2="321.5" y2="197.5" gradientUnits="userSpaceOnUse">
<stop stop-color="#4F868E"/>
<stop offset="1" stop-color="#DFECEE"/>
</linearGradient>
<linearGradient id="paint13_linear_8013_451" x1="311" y1="170.5" x2="321.5" y2="197.5" gradientUnits="userSpaceOnUse">
<stop stop-color="#4F868E"/>
<stop offset="1" stop-color="#DFECEE"/>
</linearGradient>
<linearGradient id="paint14_linear_8013_451" x1="311" y1="170.5" x2="321.5" y2="197.5" gradientUnits="userSpaceOnUse">
<stop stop-color="#4F868E"/>
<stop offset="1" stop-color="#DFECEE"/>
</linearGradient>
<linearGradient id="paint15_linear_8013_451" x1="305.668" y1="172.451" x2="328.335" y2="195.785" gradientUnits="userSpaceOnUse">
<stop stop-color="#314248"/>
<stop offset="1" stop-color="#4F868E"/>
</linearGradient>
<linearGradient id="paint16_linear_8013_451" x1="305.668" y1="172.451" x2="328.335" y2="195.785" gradientUnits="userSpaceOnUse">
<stop stop-color="#314248"/>
<stop offset="1" stop-color="#4F868E"/>
</linearGradient>
<linearGradient id="paint17_linear_8013_451" x1="305.668" y1="172.451" x2="328.335" y2="195.785" gradientUnits="userSpaceOnUse">
<stop stop-color="#314248"/>
<stop offset="1" stop-color="#4F868E"/>
</linearGradient>
<linearGradient id="paint18_linear_8013_451" x1="86" y1="172.5" x2="146" y2="172.5" gradientUnits="userSpaceOnUse">
<stop stop-color="white"/>
<stop offset="1" stop-color="#F4B62B"/>
</linearGradient>
<linearGradient id="paint19_linear_8013_451" x1="86" y1="184.5" x2="142" y2="184.5" gradientUnits="userSpaceOnUse">
<stop stop-color="white"/>
<stop offset="1" stop-color="#BC52AD"/>
</linearGradient>
<linearGradient id="paint20_linear_8013_451" x1="86" y1="196.5" x2="146" y2="196.5" gradientUnits="userSpaceOnUse">
<stop stop-color="white"/>
<stop offset="1" stop-color="#86AD6E"/>
</linearGradient>
<linearGradient id="paint21_linear_8013_451" x1="241.999" y1="155" x2="241.999" y2="207.352" gradientUnits="userSpaceOnUse">
<stop stop-color="#C3DCDE"/>
<stop offset="1" stop-color="white"/>
</linearGradient>
<clipPath id="clip0_8013_451">
<rect width="484" height="420" fill="white" transform="translate(0 1)"/>
</clipPath>
</defs>
</svg>
