<svg width="624" height="340" viewBox="0 0 624 340" fill="none" xmlns="http://www.w3.org/2000/svg">
    <g clip-path="url(#clip0_8071_1450)">
        <g clip-path="url(#clip1_8071_1450)">
            <rect x="118" y="84" width="397" height="892" rx="32" fill="#020617" />
            <rect x="0" y="300" width="624" height="200" rx="32" fill="#020617" />
            <g clip-path="url(#clip2_8071_1450)">
                <rect x="134" y="100" width="365" height="117" rx="3" fill="#020617" />
                <path
                    d="M147.609 113.352L144.367 123H142.094L146.344 111.625H147.797L147.609 113.352ZM150.32 123L147.062 113.352L146.867 111.625H148.328L152.602 123H150.32ZM150.172 118.773V120.469H144.07V118.773H150.172ZM158.837 121.203V111H160.916V123H159.041L158.837 121.203ZM153.408 118.875V118.711C153.408 118.065 153.481 117.479 153.627 116.953C153.778 116.422 153.996 115.966 154.283 115.586C154.569 115.206 154.916 114.911 155.322 114.703C155.733 114.495 156.199 114.391 156.72 114.391C157.226 114.391 157.666 114.492 158.041 114.695C158.421 114.898 158.744 115.188 159.009 115.562C159.28 115.938 159.496 116.383 159.658 116.898C159.819 117.409 159.936 117.971 160.009 118.586V119.031C159.936 119.63 159.819 120.18 159.658 120.68C159.496 121.18 159.28 121.617 159.009 121.992C158.744 122.362 158.421 122.648 158.041 122.852C157.66 123.055 157.215 123.156 156.705 123.156C156.189 123.156 155.726 123.049 155.314 122.836C154.908 122.622 154.561 122.323 154.275 121.938C153.994 121.552 153.778 121.099 153.627 120.578C153.481 120.057 153.408 119.49 153.408 118.875ZM155.478 118.711V118.875C155.478 119.24 155.509 119.581 155.572 119.898C155.634 120.216 155.736 120.497 155.877 120.742C156.017 120.982 156.197 121.169 156.416 121.305C156.64 121.44 156.91 121.508 157.228 121.508C157.634 121.508 157.968 121.419 158.228 121.242C158.494 121.06 158.699 120.812 158.845 120.5C158.991 120.182 159.085 119.826 159.127 119.43V118.203C159.106 117.891 159.051 117.602 158.962 117.336C158.879 117.07 158.759 116.841 158.603 116.648C158.452 116.456 158.265 116.305 158.041 116.195C157.817 116.086 157.551 116.031 157.244 116.031C156.926 116.031 156.655 116.102 156.431 116.242C156.207 116.378 156.025 116.568 155.884 116.812C155.744 117.057 155.64 117.341 155.572 117.664C155.509 117.987 155.478 118.336 155.478 118.711ZM168.003 121.203V111H170.081V123H168.206L168.003 121.203ZM162.573 118.875V118.711C162.573 118.065 162.646 117.479 162.792 116.953C162.943 116.422 163.162 115.966 163.448 115.586C163.735 115.206 164.081 114.911 164.487 114.703C164.899 114.495 165.365 114.391 165.886 114.391C166.391 114.391 166.831 114.492 167.206 114.695C167.586 114.898 167.909 115.188 168.175 115.562C168.446 115.938 168.662 116.383 168.823 116.898C168.985 117.409 169.102 117.971 169.175 118.586V119.031C169.102 119.63 168.985 120.18 168.823 120.68C168.662 121.18 168.446 121.617 168.175 121.992C167.909 122.362 167.586 122.648 167.206 122.852C166.826 123.055 166.381 123.156 165.87 123.156C165.355 123.156 164.891 123.049 164.48 122.836C164.073 122.622 163.727 122.323 163.441 121.938C163.159 121.552 162.943 121.099 162.792 120.578C162.646 120.057 162.573 119.49 162.573 118.875ZM164.644 118.711V118.875C164.644 119.24 164.675 119.581 164.737 119.898C164.8 120.216 164.902 120.497 165.042 120.742C165.183 120.982 165.362 121.169 165.581 121.305C165.805 121.44 166.076 121.508 166.394 121.508C166.8 121.508 167.133 121.419 167.394 121.242C167.659 121.06 167.865 120.812 168.011 120.5C168.157 120.182 168.251 119.826 168.292 119.43V118.203C168.271 117.891 168.217 117.602 168.128 117.336C168.045 117.07 167.925 116.841 167.769 116.648C167.618 116.456 167.43 116.305 167.206 116.195C166.982 116.086 166.717 116.031 166.409 116.031C166.092 116.031 165.821 116.102 165.597 116.242C165.373 116.378 165.191 116.568 165.05 116.812C164.909 117.057 164.805 117.341 164.737 117.664C164.675 117.987 164.644 118.336 164.644 118.711ZM179.702 121.531C179.993 121.531 180.254 121.474 180.483 121.359C180.712 121.245 180.894 121.083 181.03 120.875C181.17 120.667 181.246 120.424 181.256 120.148H183.202C183.191 120.721 183.03 121.234 182.717 121.688C182.405 122.141 181.988 122.5 181.467 122.766C180.952 123.026 180.373 123.156 179.733 123.156C179.082 123.156 178.514 123.047 178.03 122.828C177.545 122.609 177.142 122.305 176.819 121.914C176.501 121.523 176.261 121.07 176.1 120.555C175.944 120.039 175.866 119.487 175.866 118.898V118.648C175.866 118.06 175.944 117.508 176.1 116.992C176.261 116.477 176.501 116.023 176.819 115.633C177.142 115.242 177.545 114.938 178.03 114.719C178.514 114.5 179.079 114.391 179.725 114.391C180.407 114.391 181.006 114.523 181.522 114.789C182.043 115.055 182.449 115.43 182.741 115.914C183.037 116.398 183.191 116.969 183.202 117.625H181.256C181.246 117.323 181.178 117.052 181.053 116.812C180.928 116.573 180.751 116.38 180.522 116.234C180.293 116.089 180.014 116.016 179.686 116.016C179.337 116.016 179.045 116.089 178.811 116.234C178.582 116.38 178.402 116.581 178.272 116.836C178.147 117.086 178.058 117.367 178.006 117.68C177.959 117.987 177.936 118.31 177.936 118.648V118.898C177.936 119.242 177.959 119.57 178.006 119.883C178.058 120.195 178.147 120.477 178.272 120.727C178.402 120.971 178.582 121.167 178.811 121.312C179.045 121.458 179.342 121.531 179.702 121.531ZM186.789 116.273V123H184.727V114.547H186.68L186.789 116.273ZM189.359 114.492L189.328 116.414C189.214 116.393 189.083 116.378 188.938 116.367C188.797 116.357 188.664 116.352 188.539 116.352C188.221 116.352 187.943 116.396 187.703 116.484C187.464 116.568 187.263 116.69 187.102 116.852C186.945 117.013 186.826 117.211 186.742 117.445C186.659 117.674 186.612 117.935 186.602 118.227L186.156 118.172C186.156 117.635 186.211 117.138 186.32 116.68C186.43 116.221 186.589 115.82 186.797 115.477C187.005 115.133 187.266 114.867 187.578 114.68C187.896 114.487 188.26 114.391 188.672 114.391C188.786 114.391 188.909 114.401 189.039 114.422C189.174 114.438 189.281 114.461 189.359 114.492ZM194.283 123.156C193.642 123.156 193.067 123.052 192.556 122.844C192.046 122.635 191.611 122.346 191.252 121.977C190.897 121.602 190.624 121.167 190.431 120.672C190.244 120.172 190.15 119.635 190.15 119.062V118.75C190.15 118.099 190.244 117.508 190.431 116.977C190.619 116.44 190.884 115.979 191.228 115.594C191.572 115.208 191.983 114.911 192.463 114.703C192.942 114.495 193.47 114.391 194.048 114.391C194.647 114.391 195.176 114.492 195.634 114.695C196.093 114.893 196.476 115.174 196.783 115.539C197.09 115.904 197.322 116.341 197.478 116.852C197.634 117.357 197.713 117.917 197.713 118.531V119.398H191.088V117.977H195.681V117.82C195.671 117.492 195.608 117.193 195.494 116.922C195.379 116.646 195.202 116.427 194.963 116.266C194.723 116.099 194.413 116.016 194.033 116.016C193.726 116.016 193.457 116.083 193.228 116.219C193.004 116.349 192.817 116.536 192.666 116.781C192.52 117.021 192.41 117.307 192.338 117.641C192.265 117.974 192.228 118.344 192.228 118.75V119.062C192.228 119.417 192.275 119.745 192.369 120.047C192.468 120.349 192.611 120.612 192.798 120.836C192.991 121.055 193.22 121.227 193.486 121.352C193.757 121.471 194.064 121.531 194.408 121.531C194.84 121.531 195.231 121.448 195.58 121.281C195.934 121.109 196.241 120.857 196.502 120.523L197.541 121.602C197.364 121.862 197.124 122.112 196.822 122.352C196.525 122.591 196.166 122.786 195.744 122.938C195.322 123.083 194.835 123.156 194.283 123.156ZM204.316 121.203V111H206.394V123H204.519L204.316 121.203ZM198.886 118.875V118.711C198.886 118.065 198.959 117.479 199.105 116.953C199.256 116.422 199.474 115.966 199.761 115.586C200.047 115.206 200.394 114.911 200.8 114.703C201.211 114.495 201.678 114.391 202.198 114.391C202.704 114.391 203.144 114.492 203.519 114.695C203.899 114.898 204.222 115.188 204.487 115.562C204.758 115.938 204.974 116.383 205.136 116.898C205.297 117.409 205.415 117.971 205.487 118.586V119.031C205.415 119.63 205.297 120.18 205.136 120.68C204.974 121.18 204.758 121.617 204.487 121.992C204.222 122.362 203.899 122.648 203.519 122.852C203.139 123.055 202.693 123.156 202.183 123.156C201.667 123.156 201.204 123.049 200.792 122.836C200.386 122.622 200.04 122.323 199.753 121.938C199.472 121.552 199.256 121.099 199.105 120.578C198.959 120.057 198.886 119.49 198.886 118.875ZM200.956 118.711V118.875C200.956 119.24 200.987 119.581 201.05 119.898C201.112 120.216 201.214 120.497 201.355 120.742C201.495 120.982 201.675 121.169 201.894 121.305C202.118 121.44 202.389 121.508 202.706 121.508C203.112 121.508 203.446 121.419 203.706 121.242C203.972 121.06 204.178 120.812 204.323 120.5C204.469 120.182 204.563 119.826 204.605 119.43V118.203C204.584 117.891 204.529 117.602 204.441 117.336C204.357 117.07 204.237 116.841 204.081 116.648C203.93 116.456 203.743 116.305 203.519 116.195C203.295 116.086 203.029 116.031 202.722 116.031C202.404 116.031 202.133 116.102 201.909 116.242C201.685 116.378 201.503 116.568 201.362 116.812C201.222 117.057 201.118 117.341 201.05 117.664C200.987 117.987 200.956 118.336 200.956 118.711ZM210.598 114.547V123H208.528V114.547H210.598ZM208.387 112.336C208.387 112.029 208.492 111.773 208.7 111.57C208.914 111.367 209.2 111.266 209.559 111.266C209.919 111.266 210.203 111.367 210.411 111.57C210.624 111.773 210.731 112.029 210.731 112.336C210.731 112.638 210.624 112.891 210.411 113.094C210.203 113.297 209.919 113.398 209.559 113.398C209.2 113.398 208.914 113.297 208.7 113.094C208.492 112.891 208.387 112.638 208.387 112.336ZM216.717 114.547V116.031H211.873V114.547H216.717ZM213.17 112.469H215.241V120.562C215.241 120.812 215.274 121.005 215.342 121.141C215.41 121.276 215.511 121.367 215.647 121.414C215.782 121.461 215.944 121.484 216.131 121.484C216.267 121.484 216.392 121.477 216.506 121.461C216.621 121.445 216.717 121.43 216.795 121.414L216.803 122.961C216.631 123.018 216.436 123.065 216.217 123.102C216.004 123.138 215.761 123.156 215.491 123.156C215.027 123.156 214.621 123.078 214.272 122.922C213.923 122.76 213.652 122.503 213.459 122.148C213.267 121.789 213.17 121.315 213.17 120.727V112.469ZM225.845 121.531C226.137 121.531 226.397 121.474 226.627 121.359C226.856 121.245 227.038 121.083 227.173 120.875C227.314 120.667 227.39 120.424 227.4 120.148H229.345C229.335 120.721 229.173 121.234 228.861 121.688C228.548 122.141 228.132 122.5 227.611 122.766C227.095 123.026 226.517 123.156 225.877 123.156C225.226 123.156 224.658 123.047 224.173 122.828C223.689 122.609 223.285 122.305 222.963 121.914C222.645 121.523 222.405 121.07 222.244 120.555C222.088 120.039 222.009 119.487 222.009 118.898V118.648C222.009 118.06 222.088 117.508 222.244 116.992C222.405 116.477 222.645 116.023 222.963 115.633C223.285 115.242 223.689 114.938 224.173 114.719C224.658 114.5 225.223 114.391 225.869 114.391C226.551 114.391 227.15 114.523 227.666 114.789C228.186 115.055 228.593 115.43 228.884 115.914C229.181 116.398 229.335 116.969 229.345 117.625H227.4C227.39 117.323 227.322 117.052 227.197 116.812C227.072 116.573 226.895 116.38 226.666 116.234C226.436 116.089 226.158 116.016 225.83 116.016C225.481 116.016 225.189 116.089 224.955 116.234C224.726 116.38 224.546 116.581 224.416 116.836C224.291 117.086 224.202 117.367 224.15 117.68C224.103 117.987 224.08 118.31 224.08 118.648V118.898C224.08 119.242 224.103 119.57 224.15 119.883C224.202 120.195 224.291 120.477 224.416 120.727C224.546 120.971 224.726 121.167 224.955 121.312C225.189 121.458 225.486 121.531 225.845 121.531ZM235.527 121.203V117.305C235.527 117.018 235.477 116.771 235.378 116.562C235.279 116.354 235.128 116.193 234.925 116.078C234.722 115.964 234.464 115.906 234.152 115.906C233.876 115.906 233.633 115.953 233.425 116.047C233.222 116.141 233.066 116.273 232.956 116.445C232.847 116.612 232.792 116.805 232.792 117.023H230.722C230.722 116.674 230.805 116.344 230.972 116.031C231.139 115.714 231.376 115.432 231.683 115.188C231.995 114.938 232.368 114.742 232.8 114.602C233.238 114.461 233.727 114.391 234.269 114.391C234.909 114.391 235.48 114.5 235.98 114.719C236.485 114.932 236.881 115.255 237.167 115.688C237.459 116.12 237.605 116.664 237.605 117.32V121.008C237.605 121.43 237.631 121.792 237.683 122.094C237.74 122.391 237.823 122.648 237.933 122.867V123H235.831C235.732 122.786 235.657 122.516 235.605 122.188C235.553 121.854 235.527 121.526 235.527 121.203ZM235.816 117.852L235.831 119.078H234.527C234.204 119.078 233.92 119.112 233.675 119.18C233.43 119.242 233.23 119.336 233.073 119.461C232.917 119.581 232.8 119.727 232.722 119.898C232.644 120.065 232.605 120.255 232.605 120.469C232.605 120.677 232.652 120.865 232.745 121.031C232.844 121.198 232.985 121.331 233.167 121.43C233.355 121.523 233.573 121.57 233.823 121.57C234.188 121.57 234.506 121.497 234.777 121.352C235.047 121.201 235.258 121.018 235.409 120.805C235.56 120.591 235.641 120.388 235.652 120.195L236.245 121.086C236.172 121.299 236.063 121.526 235.917 121.766C235.771 122.005 235.584 122.229 235.355 122.438C235.126 122.646 234.849 122.818 234.527 122.953C234.204 123.089 233.829 123.156 233.402 123.156C232.855 123.156 232.365 123.047 231.933 122.828C231.501 122.609 231.159 122.31 230.909 121.93C230.659 121.549 230.534 121.117 230.534 120.633C230.534 120.185 230.618 119.789 230.784 119.445C230.951 119.102 231.198 118.812 231.527 118.578C231.855 118.339 232.261 118.159 232.745 118.039C233.235 117.914 233.795 117.852 234.425 117.852H235.816ZM241.677 116.273V123H239.614V114.547H241.567L241.677 116.273ZM244.247 114.492L244.216 116.414C244.101 116.393 243.971 116.378 243.825 116.367C243.684 116.357 243.552 116.352 243.427 116.352C243.109 116.352 242.83 116.396 242.591 116.484C242.351 116.568 242.151 116.69 241.989 116.852C241.833 117.013 241.713 117.211 241.63 117.445C241.546 117.674 241.499 117.935 241.489 118.227L241.044 118.172C241.044 117.635 241.098 117.138 241.208 116.68C241.317 116.221 241.476 115.82 241.684 115.477C241.893 115.133 242.153 114.867 242.466 114.68C242.783 114.487 243.148 114.391 243.559 114.391C243.674 114.391 243.796 114.401 243.927 114.422C244.062 114.438 244.169 114.461 244.247 114.492ZM250.444 121.203V111H252.522V123H250.647L250.444 121.203ZM245.014 118.875V118.711C245.014 118.065 245.087 117.479 245.233 116.953C245.384 116.422 245.603 115.966 245.889 115.586C246.176 115.206 246.522 114.911 246.928 114.703C247.34 114.495 247.806 114.391 248.327 114.391C248.832 114.391 249.272 114.492 249.647 114.695C250.027 114.898 250.35 115.188 250.616 115.562C250.886 115.938 251.103 116.383 251.264 116.898C251.426 117.409 251.543 117.971 251.616 118.586V119.031C251.543 119.63 251.426 120.18 251.264 120.68C251.103 121.18 250.886 121.617 250.616 121.992C250.35 122.362 250.027 122.648 249.647 122.852C249.267 123.055 248.821 123.156 248.311 123.156C247.795 123.156 247.332 123.049 246.92 122.836C246.514 122.622 246.168 122.323 245.881 121.938C245.6 121.552 245.384 121.099 245.233 120.578C245.087 120.057 245.014 119.49 245.014 118.875ZM247.084 118.711V118.875C247.084 119.24 247.116 119.581 247.178 119.898C247.241 120.216 247.342 120.497 247.483 120.742C247.623 120.982 247.803 121.169 248.022 121.305C248.246 121.44 248.517 121.508 248.834 121.508C249.241 121.508 249.574 121.419 249.834 121.242C250.1 121.06 250.306 120.812 250.452 120.5C250.597 120.182 250.691 119.826 250.733 119.43V118.203C250.712 117.891 250.657 117.602 250.569 117.336C250.485 117.07 250.366 116.841 250.209 116.648C250.058 116.456 249.871 116.305 249.647 116.195C249.423 116.086 249.157 116.031 248.85 116.031C248.532 116.031 248.261 116.102 248.037 116.242C247.814 116.378 247.631 116.568 247.491 116.812C247.35 117.057 247.246 117.341 247.178 117.664C247.116 117.987 247.084 118.336 247.084 118.711Z"
                    fill="white" fill-opacity="0.35" />
                <path
                    d="M147.906 152.223H149.371C149.324 152.781 149.168 153.279 148.902 153.717C148.637 154.15 148.264 154.492 147.783 154.742C147.303 154.992 146.719 155.117 146.031 155.117C145.504 155.117 145.029 155.023 144.607 154.836C144.186 154.645 143.824 154.375 143.523 154.027C143.223 153.676 142.992 153.252 142.832 152.756C142.676 152.26 142.598 151.705 142.598 151.092V150.383C142.598 149.77 142.678 149.215 142.838 148.719C143.002 148.223 143.236 147.799 143.541 147.447C143.846 147.092 144.211 146.82 144.637 146.633C145.066 146.445 145.549 146.352 146.084 146.352C146.764 146.352 147.338 146.477 147.807 146.727C148.275 146.977 148.639 147.322 148.896 147.764C149.158 148.205 149.318 148.711 149.377 149.281H147.912C147.873 148.914 147.787 148.6 147.654 148.338C147.525 148.076 147.334 147.877 147.08 147.74C146.826 147.6 146.494 147.529 146.084 147.529C145.748 147.529 145.455 147.592 145.205 147.717C144.955 147.842 144.746 148.025 144.578 148.268C144.41 148.51 144.283 148.809 144.197 149.164C144.115 149.516 144.074 149.918 144.074 150.371V151.092C144.074 151.521 144.111 151.912 144.186 152.264C144.264 152.611 144.381 152.91 144.537 153.16C144.697 153.41 144.9 153.604 145.146 153.74C145.393 153.877 145.688 153.945 146.031 153.945C146.449 153.945 146.787 153.879 147.045 153.746C147.307 153.613 147.504 153.42 147.637 153.166C147.773 152.908 147.863 152.594 147.906 152.223ZM154.141 153.729V150.705C154.141 150.479 154.1 150.283 154.018 150.119C153.936 149.955 153.811 149.828 153.643 149.738C153.479 149.648 153.271 149.604 153.021 149.604C152.791 149.604 152.592 149.643 152.424 149.721C152.256 149.799 152.125 149.904 152.031 150.037C151.938 150.17 151.891 150.32 151.891 150.488H150.484C150.484 150.238 150.545 149.996 150.666 149.762C150.787 149.527 150.963 149.318 151.193 149.135C151.424 148.951 151.699 148.807 152.02 148.701C152.34 148.596 152.699 148.543 153.098 148.543C153.574 148.543 153.996 148.623 154.363 148.783C154.734 148.943 155.025 149.186 155.236 149.51C155.451 149.83 155.559 150.232 155.559 150.717V153.535C155.559 153.824 155.578 154.084 155.617 154.314C155.66 154.541 155.721 154.738 155.799 154.906V155H154.352C154.285 154.848 154.232 154.654 154.193 154.42C154.158 154.182 154.141 153.951 154.141 153.729ZM154.346 151.145L154.357 152.018H153.344C153.082 152.018 152.852 152.043 152.652 152.094C152.453 152.141 152.287 152.211 152.154 152.305C152.021 152.398 151.922 152.512 151.855 152.645C151.789 152.777 151.756 152.928 151.756 153.096C151.756 153.264 151.795 153.418 151.873 153.559C151.951 153.695 152.064 153.803 152.213 153.881C152.365 153.959 152.549 153.998 152.764 153.998C153.053 153.998 153.305 153.939 153.52 153.822C153.738 153.701 153.91 153.555 154.035 153.383C154.16 153.207 154.227 153.041 154.234 152.885L154.691 153.512C154.645 153.672 154.564 153.844 154.451 154.027C154.338 154.211 154.189 154.387 154.006 154.555C153.826 154.719 153.609 154.854 153.355 154.959C153.105 155.064 152.816 155.117 152.488 155.117C152.074 155.117 151.705 155.035 151.381 154.871C151.057 154.703 150.803 154.479 150.619 154.197C150.436 153.912 150.344 153.59 150.344 153.23C150.344 152.895 150.406 152.598 150.531 152.34C150.66 152.078 150.848 151.859 151.094 151.684C151.344 151.508 151.648 151.375 152.008 151.285C152.367 151.191 152.777 151.145 153.238 151.145H154.346ZM158.453 149.867V155H157.041V148.66H158.389L158.453 149.867ZM160.393 148.619L160.381 149.932C160.295 149.916 160.201 149.904 160.1 149.896C160.002 149.889 159.904 149.885 159.807 149.885C159.564 149.885 159.352 149.92 159.168 149.99C158.984 150.057 158.83 150.154 158.705 150.283C158.584 150.408 158.49 150.561 158.424 150.74C158.357 150.92 158.318 151.121 158.307 151.344L157.984 151.367C157.984 150.969 158.023 150.6 158.102 150.26C158.18 149.92 158.297 149.621 158.453 149.363C158.613 149.105 158.812 148.904 159.051 148.76C159.293 148.615 159.572 148.543 159.889 148.543C159.975 148.543 160.066 148.551 160.164 148.566C160.266 148.582 160.342 148.6 160.393 148.619ZM165.027 153.688V146H166.445V155H165.162L165.027 153.688ZM160.902 151.9V151.777C160.902 151.297 160.959 150.859 161.072 150.465C161.186 150.066 161.35 149.725 161.564 149.439C161.779 149.15 162.041 148.93 162.35 148.777C162.658 148.621 163.006 148.543 163.393 148.543C163.775 148.543 164.111 148.617 164.4 148.766C164.689 148.914 164.936 149.127 165.139 149.404C165.342 149.678 165.504 150.006 165.625 150.389C165.746 150.768 165.832 151.189 165.883 151.654V152.047C165.832 152.5 165.746 152.914 165.625 153.289C165.504 153.664 165.342 153.988 165.139 154.262C164.936 154.535 164.688 154.746 164.395 154.895C164.105 155.043 163.768 155.117 163.381 155.117C162.998 155.117 162.652 155.037 162.344 154.877C162.039 154.717 161.779 154.492 161.564 154.203C161.35 153.914 161.186 153.574 161.072 153.184C160.959 152.789 160.902 152.361 160.902 151.9ZM162.314 151.777V151.9C162.314 152.189 162.34 152.459 162.391 152.709C162.445 152.959 162.529 153.18 162.643 153.371C162.756 153.559 162.902 153.707 163.082 153.816C163.266 153.922 163.484 153.975 163.738 153.975C164.059 153.975 164.322 153.904 164.529 153.764C164.736 153.623 164.898 153.434 165.016 153.195C165.137 152.953 165.219 152.684 165.262 152.387V151.326C165.238 151.096 165.189 150.881 165.115 150.682C165.045 150.482 164.949 150.309 164.828 150.16C164.707 150.008 164.557 149.891 164.377 149.809C164.201 149.723 163.992 149.68 163.75 149.68C163.492 149.68 163.273 149.734 163.094 149.844C162.914 149.953 162.766 150.104 162.648 150.295C162.535 150.486 162.451 150.709 162.396 150.963C162.342 151.217 162.314 151.488 162.314 151.777ZM174.777 153.688V146H176.195V155H174.912L174.777 153.688ZM170.652 151.9V151.777C170.652 151.297 170.709 150.859 170.822 150.465C170.936 150.066 171.1 149.725 171.314 149.439C171.529 149.15 171.791 148.93 172.1 148.777C172.408 148.621 172.756 148.543 173.143 148.543C173.525 148.543 173.861 148.617 174.15 148.766C174.439 148.914 174.686 149.127 174.889 149.404C175.092 149.678 175.254 150.006 175.375 150.389C175.496 150.768 175.582 151.189 175.633 151.654V152.047C175.582 152.5 175.496 152.914 175.375 153.289C175.254 153.664 175.092 153.988 174.889 154.262C174.686 154.535 174.438 154.746 174.145 154.895C173.855 155.043 173.518 155.117 173.131 155.117C172.748 155.117 172.402 155.037 172.094 154.877C171.789 154.717 171.529 154.492 171.314 154.203C171.1 153.914 170.936 153.574 170.822 153.184C170.709 152.789 170.652 152.361 170.652 151.9ZM172.064 151.777V151.9C172.064 152.189 172.09 152.459 172.141 152.709C172.195 152.959 172.279 153.18 172.393 153.371C172.506 153.559 172.652 153.707 172.832 153.816C173.016 153.922 173.234 153.975 173.488 153.975C173.809 153.975 174.072 153.904 174.279 153.764C174.486 153.623 174.648 153.434 174.766 153.195C174.887 152.953 174.969 152.684 175.012 152.387V151.326C174.988 151.096 174.939 150.881 174.865 150.682C174.795 150.482 174.699 150.309 174.578 150.16C174.457 150.008 174.307 149.891 174.127 149.809C173.951 149.723 173.742 149.68 173.5 149.68C173.242 149.68 173.023 149.734 172.844 149.844C172.664 149.953 172.516 150.104 172.398 150.295C172.285 150.486 172.201 150.709 172.146 150.963C172.092 151.217 172.064 151.488 172.064 151.777ZM180.467 155.117C179.998 155.117 179.574 155.041 179.195 154.889C178.82 154.732 178.5 154.516 178.234 154.238C177.973 153.961 177.771 153.635 177.631 153.26C177.49 152.885 177.42 152.48 177.42 152.047V151.812C177.42 151.316 177.492 150.867 177.637 150.465C177.781 150.062 177.982 149.719 178.24 149.434C178.498 149.145 178.803 148.924 179.154 148.771C179.506 148.619 179.887 148.543 180.297 148.543C180.75 148.543 181.146 148.619 181.486 148.771C181.826 148.924 182.107 149.139 182.33 149.416C182.557 149.689 182.725 150.016 182.834 150.395C182.947 150.773 183.004 151.191 183.004 151.648V152.252H178.105V151.238H181.609V151.127C181.602 150.873 181.551 150.635 181.457 150.412C181.367 150.189 181.229 150.01 181.041 149.873C180.854 149.736 180.604 149.668 180.291 149.668C180.057 149.668 179.848 149.719 179.664 149.82C179.484 149.918 179.334 150.061 179.213 150.248C179.092 150.436 178.998 150.662 178.932 150.928C178.869 151.189 178.838 151.484 178.838 151.812V152.047C178.838 152.324 178.875 152.582 178.949 152.82C179.027 153.055 179.141 153.26 179.289 153.436C179.438 153.611 179.617 153.75 179.828 153.852C180.039 153.949 180.279 153.998 180.549 153.998C180.889 153.998 181.191 153.93 181.457 153.793C181.723 153.656 181.953 153.463 182.148 153.213L182.893 153.934C182.756 154.133 182.578 154.324 182.359 154.508C182.141 154.688 181.873 154.834 181.557 154.947C181.244 155.061 180.881 155.117 180.467 155.117ZM187.012 148.66V149.691H183.438V148.66H187.012ZM184.469 147.107H185.881V153.248C185.881 153.443 185.908 153.594 185.963 153.699C186.021 153.801 186.102 153.869 186.203 153.904C186.305 153.939 186.424 153.957 186.561 153.957C186.658 153.957 186.752 153.951 186.842 153.939C186.932 153.928 187.004 153.916 187.059 153.904L187.064 154.982C186.947 155.018 186.811 155.049 186.654 155.076C186.502 155.104 186.326 155.117 186.127 155.117C185.803 155.117 185.516 155.061 185.266 154.947C185.016 154.83 184.82 154.641 184.68 154.379C184.539 154.117 184.469 153.77 184.469 153.336V147.107ZM191.676 153.729V150.705C191.676 150.479 191.635 150.283 191.553 150.119C191.471 149.955 191.346 149.828 191.178 149.738C191.014 149.648 190.807 149.604 190.557 149.604C190.326 149.604 190.127 149.643 189.959 149.721C189.791 149.799 189.66 149.904 189.566 150.037C189.473 150.17 189.426 150.32 189.426 150.488H188.02C188.02 150.238 188.08 149.996 188.201 149.762C188.322 149.527 188.498 149.318 188.729 149.135C188.959 148.951 189.234 148.807 189.555 148.701C189.875 148.596 190.234 148.543 190.633 148.543C191.109 148.543 191.531 148.623 191.898 148.783C192.27 148.943 192.561 149.186 192.771 149.51C192.986 149.83 193.094 150.232 193.094 150.717V153.535C193.094 153.824 193.113 154.084 193.152 154.314C193.195 154.541 193.256 154.738 193.334 154.906V155H191.887C191.82 154.848 191.768 154.654 191.729 154.42C191.693 154.182 191.676 153.951 191.676 153.729ZM191.881 151.145L191.893 152.018H190.879C190.617 152.018 190.387 152.043 190.188 152.094C189.988 152.141 189.822 152.211 189.689 152.305C189.557 152.398 189.457 152.512 189.391 152.645C189.324 152.777 189.291 152.928 189.291 153.096C189.291 153.264 189.33 153.418 189.408 153.559C189.486 153.695 189.6 153.803 189.748 153.881C189.9 153.959 190.084 153.998 190.299 153.998C190.588 153.998 190.84 153.939 191.055 153.822C191.273 153.701 191.445 153.555 191.57 153.383C191.695 153.207 191.762 153.041 191.77 152.885L192.227 153.512C192.18 153.672 192.1 153.844 191.986 154.027C191.873 154.211 191.725 154.387 191.541 154.555C191.361 154.719 191.145 154.854 190.891 154.959C190.641 155.064 190.352 155.117 190.023 155.117C189.609 155.117 189.24 155.035 188.916 154.871C188.592 154.703 188.338 154.479 188.154 154.197C187.971 153.912 187.879 153.59 187.879 153.23C187.879 152.895 187.941 152.598 188.066 152.34C188.195 152.078 188.383 151.859 188.629 151.684C188.879 151.508 189.184 151.375 189.543 151.285C189.902 151.191 190.312 151.145 190.773 151.145H191.881ZM196.082 148.66V155H194.664V148.66H196.082ZM194.57 146.996C194.57 146.781 194.641 146.604 194.781 146.463C194.926 146.318 195.125 146.246 195.379 146.246C195.629 146.246 195.826 146.318 195.971 146.463C196.115 146.604 196.188 146.781 196.188 146.996C196.188 147.207 196.115 147.383 195.971 147.523C195.826 147.664 195.629 147.734 195.379 147.734C195.125 147.734 194.926 147.664 194.781 147.523C194.641 147.383 194.57 147.207 194.57 146.996ZM199.141 146V155H197.723V146H199.141ZM204.244 153.283C204.244 153.143 204.209 153.016 204.139 152.902C204.068 152.785 203.934 152.68 203.734 152.586C203.539 152.492 203.25 152.406 202.867 152.328C202.531 152.254 202.223 152.166 201.941 152.064C201.664 151.959 201.426 151.832 201.227 151.684C201.027 151.535 200.873 151.359 200.764 151.156C200.654 150.953 200.6 150.719 200.6 150.453C200.6 150.195 200.656 149.951 200.77 149.721C200.883 149.49 201.045 149.287 201.256 149.111C201.467 148.936 201.723 148.797 202.023 148.695C202.328 148.594 202.668 148.543 203.043 148.543C203.574 148.543 204.029 148.633 204.408 148.812C204.791 148.988 205.084 149.229 205.287 149.533C205.49 149.834 205.592 150.174 205.592 150.553H204.18C204.18 150.385 204.137 150.229 204.051 150.084C203.969 149.936 203.844 149.816 203.676 149.727C203.508 149.633 203.297 149.586 203.043 149.586C202.801 149.586 202.6 149.625 202.439 149.703C202.283 149.777 202.166 149.875 202.088 149.996C202.014 150.117 201.977 150.25 201.977 150.395C201.977 150.5 201.996 150.596 202.035 150.682C202.078 150.764 202.148 150.84 202.246 150.91C202.344 150.977 202.477 151.039 202.645 151.098C202.816 151.156 203.031 151.213 203.289 151.268C203.773 151.369 204.189 151.5 204.537 151.66C204.889 151.816 205.158 152.02 205.346 152.27C205.533 152.516 205.627 152.828 205.627 153.207C205.627 153.488 205.566 153.746 205.445 153.98C205.328 154.211 205.156 154.412 204.93 154.584C204.703 154.752 204.432 154.883 204.115 154.977C203.803 155.07 203.451 155.117 203.061 155.117C202.486 155.117 202 155.016 201.602 154.812C201.203 154.605 200.9 154.342 200.693 154.021C200.49 153.697 200.389 153.361 200.389 153.014H201.754C201.77 153.275 201.842 153.484 201.971 153.641C202.104 153.793 202.268 153.904 202.463 153.975C202.662 154.041 202.867 154.074 203.078 154.074C203.332 154.074 203.545 154.041 203.717 153.975C203.889 153.904 204.02 153.811 204.109 153.693C204.199 153.572 204.244 153.436 204.244 153.283Z"
                    fill="white" fill-opacity="0.35" />
                <g filter="url(#filter0_d_8071_1450)">
                    <g clip-path="url(#clip3_8071_1450)">
                        <path
                            d="M142 169C142 164.582 145.582 161 150 161H483C487.418 161 491 164.582 491 169V209C491 213.418 487.418 217 483 217H150C145.582 217 142 213.418 142 209V169Z"
                            fill="#020617" />
                        <path
                            d="M166.188 190.383H167.688C167.609 191.102 167.404 191.745 167.07 192.312C166.737 192.88 166.266 193.331 165.656 193.664C165.047 193.992 164.286 194.156 163.375 194.156C162.708 194.156 162.102 194.031 161.555 193.781C161.013 193.531 160.547 193.177 160.156 192.719C159.766 192.255 159.464 191.701 159.25 191.055C159.042 190.404 158.938 189.68 158.938 188.883V187.75C158.938 186.953 159.042 186.232 159.25 185.586C159.464 184.935 159.768 184.378 160.164 183.914C160.565 183.451 161.047 183.094 161.609 182.844C162.172 182.594 162.805 182.469 163.508 182.469C164.367 182.469 165.094 182.63 165.688 182.953C166.281 183.276 166.742 183.724 167.07 184.297C167.404 184.865 167.609 185.523 167.688 186.273H166.188C166.115 185.742 165.979 185.286 165.781 184.906C165.583 184.521 165.302 184.224 164.938 184.016C164.573 183.807 164.096 183.703 163.508 183.703C163.003 183.703 162.557 183.799 162.172 183.992C161.792 184.185 161.471 184.458 161.211 184.812C160.956 185.167 160.763 185.591 160.633 186.086C160.503 186.581 160.438 187.13 160.438 187.734V188.883C160.438 189.44 160.495 189.964 160.609 190.453C160.729 190.943 160.909 191.372 161.148 191.742C161.388 192.112 161.693 192.404 162.062 192.617C162.432 192.826 162.87 192.93 163.375 192.93C164.016 192.93 164.526 192.828 164.906 192.625C165.286 192.422 165.573 192.13 165.766 191.75C165.964 191.37 166.104 190.914 166.188 190.383ZM174.508 192.555V188.203C174.508 187.87 174.44 187.581 174.305 187.336C174.174 187.086 173.977 186.893 173.711 186.758C173.445 186.622 173.117 186.555 172.727 186.555C172.362 186.555 172.042 186.617 171.766 186.742C171.495 186.867 171.281 187.031 171.125 187.234C170.974 187.438 170.898 187.656 170.898 187.891H169.453C169.453 187.589 169.531 187.289 169.688 186.992C169.844 186.695 170.068 186.427 170.359 186.188C170.656 185.943 171.01 185.75 171.422 185.609C171.839 185.464 172.302 185.391 172.812 185.391C173.427 185.391 173.969 185.495 174.438 185.703C174.911 185.911 175.281 186.227 175.547 186.648C175.818 187.065 175.953 187.589 175.953 188.219V192.156C175.953 192.438 175.977 192.737 176.023 193.055C176.076 193.372 176.151 193.646 176.25 193.875V194H174.742C174.669 193.833 174.612 193.612 174.57 193.336C174.529 193.055 174.508 192.794 174.508 192.555ZM174.758 188.875L174.773 189.891H173.312C172.901 189.891 172.534 189.924 172.211 189.992C171.888 190.055 171.617 190.151 171.398 190.281C171.18 190.411 171.013 190.576 170.898 190.773C170.784 190.966 170.727 191.193 170.727 191.453C170.727 191.719 170.786 191.961 170.906 192.18C171.026 192.398 171.206 192.573 171.445 192.703C171.69 192.828 171.99 192.891 172.344 192.891C172.786 192.891 173.177 192.797 173.516 192.609C173.854 192.422 174.122 192.193 174.32 191.922C174.523 191.651 174.633 191.388 174.648 191.133L175.266 191.828C175.229 192.047 175.13 192.289 174.969 192.555C174.807 192.82 174.591 193.076 174.32 193.32C174.055 193.56 173.737 193.76 173.367 193.922C173.003 194.078 172.591 194.156 172.133 194.156C171.56 194.156 171.057 194.044 170.625 193.82C170.198 193.596 169.865 193.297 169.625 192.922C169.391 192.542 169.273 192.117 169.273 191.648C169.273 191.195 169.362 190.797 169.539 190.453C169.716 190.104 169.971 189.815 170.305 189.586C170.638 189.352 171.039 189.174 171.508 189.055C171.977 188.935 172.5 188.875 173.078 188.875H174.758ZM179.672 186.875V194H178.227V185.547H179.633L179.672 186.875ZM182.312 185.5L182.305 186.844C182.185 186.818 182.07 186.802 181.961 186.797C181.857 186.786 181.737 186.781 181.602 186.781C181.268 186.781 180.974 186.833 180.719 186.938C180.464 187.042 180.247 187.188 180.07 187.375C179.893 187.562 179.753 187.786 179.648 188.047C179.549 188.302 179.484 188.583 179.453 188.891L179.047 189.125C179.047 188.615 179.096 188.135 179.195 187.688C179.299 187.24 179.458 186.844 179.672 186.5C179.885 186.151 180.156 185.88 180.484 185.688C180.818 185.49 181.214 185.391 181.672 185.391C181.776 185.391 181.896 185.404 182.031 185.43C182.167 185.451 182.26 185.474 182.312 185.5ZM188.82 192.359V182H190.273V194H188.945L188.82 192.359ZM183.133 189.867V189.703C183.133 189.057 183.211 188.471 183.367 187.945C183.529 187.414 183.755 186.958 184.047 186.578C184.344 186.198 184.695 185.906 185.102 185.703C185.513 185.495 185.971 185.391 186.477 185.391C187.008 185.391 187.471 185.484 187.867 185.672C188.268 185.854 188.607 186.122 188.883 186.477C189.164 186.826 189.385 187.247 189.547 187.742C189.708 188.237 189.82 188.797 189.883 189.422V190.141C189.826 190.76 189.714 191.318 189.547 191.812C189.385 192.307 189.164 192.729 188.883 193.078C188.607 193.427 188.268 193.695 187.867 193.883C187.466 194.065 186.997 194.156 186.461 194.156C185.966 194.156 185.513 194.049 185.102 193.836C184.695 193.622 184.344 193.323 184.047 192.938C183.755 192.552 183.529 192.099 183.367 191.578C183.211 191.052 183.133 190.482 183.133 189.867ZM184.586 189.703V189.867C184.586 190.289 184.628 190.685 184.711 191.055C184.799 191.424 184.935 191.75 185.117 192.031C185.299 192.312 185.531 192.534 185.812 192.695C186.094 192.852 186.43 192.93 186.82 192.93C187.299 192.93 187.693 192.828 188 192.625C188.312 192.422 188.562 192.154 188.75 191.82C188.938 191.487 189.083 191.125 189.188 190.734V188.852C189.125 188.565 189.034 188.289 188.914 188.023C188.799 187.753 188.648 187.513 188.461 187.305C188.279 187.091 188.052 186.922 187.781 186.797C187.516 186.672 187.201 186.609 186.836 186.609C186.44 186.609 186.099 186.693 185.812 186.859C185.531 187.021 185.299 187.245 185.117 187.531C184.935 187.812 184.799 188.141 184.711 188.516C184.628 188.885 184.586 189.281 184.586 189.703ZM197.938 187.352V194H196.492V185.547H197.859L197.938 187.352ZM197.594 189.453L196.992 189.43C196.997 188.852 197.083 188.318 197.25 187.828C197.417 187.333 197.651 186.904 197.953 186.539C198.255 186.174 198.615 185.893 199.031 185.695C199.453 185.492 199.919 185.391 200.43 185.391C200.846 185.391 201.221 185.448 201.555 185.562C201.888 185.672 202.172 185.849 202.406 186.094C202.646 186.339 202.828 186.656 202.953 187.047C203.078 187.432 203.141 187.904 203.141 188.461V194H201.688V188.445C201.688 188.003 201.622 187.648 201.492 187.383C201.362 187.112 201.172 186.917 200.922 186.797C200.672 186.672 200.365 186.609 200 186.609C199.641 186.609 199.312 186.685 199.016 186.836C198.724 186.987 198.471 187.195 198.258 187.461C198.049 187.727 197.885 188.031 197.766 188.375C197.651 188.714 197.594 189.073 197.594 189.453ZM210.508 192.047V185.547H211.961V194H210.578L210.508 192.047ZM210.781 190.266L211.383 190.25C211.383 190.812 211.323 191.333 211.203 191.812C211.089 192.286 210.901 192.698 210.641 193.047C210.38 193.396 210.039 193.669 209.617 193.867C209.195 194.06 208.682 194.156 208.078 194.156C207.667 194.156 207.289 194.096 206.945 193.977C206.607 193.857 206.315 193.672 206.07 193.422C205.826 193.172 205.635 192.846 205.5 192.445C205.37 192.044 205.305 191.562 205.305 191V185.547H206.75V191.016C206.75 191.396 206.792 191.711 206.875 191.961C206.964 192.206 207.081 192.401 207.227 192.547C207.378 192.688 207.544 192.786 207.727 192.844C207.914 192.901 208.107 192.93 208.305 192.93C208.919 192.93 209.406 192.812 209.766 192.578C210.125 192.339 210.383 192.018 210.539 191.617C210.701 191.211 210.781 190.76 210.781 190.266ZM215.602 187.227V194H214.148V185.547H215.523L215.602 187.227ZM215.305 189.453L214.633 189.43C214.638 188.852 214.714 188.318 214.859 187.828C215.005 187.333 215.221 186.904 215.508 186.539C215.794 186.174 216.151 185.893 216.578 185.695C217.005 185.492 217.5 185.391 218.062 185.391C218.458 185.391 218.823 185.448 219.156 185.562C219.49 185.672 219.779 185.846 220.023 186.086C220.268 186.326 220.458 186.633 220.594 187.008C220.729 187.383 220.797 187.836 220.797 188.367V194H219.352V188.438C219.352 187.995 219.276 187.641 219.125 187.375C218.979 187.109 218.771 186.917 218.5 186.797C218.229 186.672 217.911 186.609 217.547 186.609C217.12 186.609 216.763 186.685 216.477 186.836C216.19 186.987 215.961 187.195 215.789 187.461C215.617 187.727 215.492 188.031 215.414 188.375C215.341 188.714 215.305 189.073 215.305 189.453ZM220.781 188.656L219.812 188.953C219.818 188.49 219.893 188.044 220.039 187.617C220.19 187.19 220.406 186.81 220.688 186.477C220.974 186.143 221.326 185.88 221.742 185.688C222.159 185.49 222.635 185.391 223.172 185.391C223.625 185.391 224.026 185.451 224.375 185.57C224.729 185.69 225.026 185.875 225.266 186.125C225.51 186.37 225.695 186.685 225.82 187.07C225.945 187.456 226.008 187.914 226.008 188.445V194H224.555V188.43C224.555 187.956 224.479 187.589 224.328 187.328C224.182 187.062 223.974 186.878 223.703 186.773C223.438 186.664 223.12 186.609 222.75 186.609C222.432 186.609 222.151 186.664 221.906 186.773C221.661 186.883 221.456 187.034 221.289 187.227C221.122 187.414 220.995 187.63 220.906 187.875C220.823 188.12 220.781 188.38 220.781 188.656ZM228.188 182H229.641V192.359L229.516 194H228.188V182ZM235.352 189.703V189.867C235.352 190.482 235.279 191.052 235.133 191.578C234.987 192.099 234.773 192.552 234.492 192.938C234.211 193.323 233.867 193.622 233.461 193.836C233.055 194.049 232.589 194.156 232.062 194.156C231.526 194.156 231.055 194.065 230.648 193.883C230.247 193.695 229.909 193.427 229.633 193.078C229.357 192.729 229.135 192.307 228.969 191.812C228.807 191.318 228.695 190.76 228.633 190.141V189.422C228.695 188.797 228.807 188.237 228.969 187.742C229.135 187.247 229.357 186.826 229.633 186.477C229.909 186.122 230.247 185.854 230.648 185.672C231.049 185.484 231.516 185.391 232.047 185.391C232.578 185.391 233.049 185.495 233.461 185.703C233.872 185.906 234.216 186.198 234.492 186.578C234.773 186.958 234.987 187.414 235.133 187.945C235.279 188.471 235.352 189.057 235.352 189.703ZM233.898 189.867V189.703C233.898 189.281 233.859 188.885 233.781 188.516C233.703 188.141 233.578 187.812 233.406 187.531C233.234 187.245 233.008 187.021 232.727 186.859C232.445 186.693 232.099 186.609 231.688 186.609C231.323 186.609 231.005 186.672 230.734 186.797C230.469 186.922 230.242 187.091 230.055 187.305C229.867 187.513 229.714 187.753 229.594 188.023C229.479 188.289 229.393 188.565 229.336 188.852V190.734C229.419 191.099 229.555 191.451 229.742 191.789C229.935 192.122 230.19 192.396 230.508 192.609C230.831 192.823 231.229 192.93 231.703 192.93C232.094 192.93 232.427 192.852 232.703 192.695C232.984 192.534 233.211 192.312 233.383 192.031C233.56 191.75 233.69 191.424 233.773 191.055C233.857 190.685 233.898 190.289 233.898 189.867ZM240.688 194.156C240.099 194.156 239.565 194.057 239.086 193.859C238.612 193.656 238.203 193.372 237.859 193.008C237.521 192.643 237.26 192.211 237.078 191.711C236.896 191.211 236.805 190.664 236.805 190.07V189.742C236.805 189.055 236.906 188.443 237.109 187.906C237.312 187.365 237.589 186.906 237.938 186.531C238.286 186.156 238.682 185.872 239.125 185.68C239.568 185.487 240.026 185.391 240.5 185.391C241.104 185.391 241.625 185.495 242.062 185.703C242.505 185.911 242.867 186.203 243.148 186.578C243.43 186.948 243.638 187.385 243.773 187.891C243.909 188.391 243.977 188.938 243.977 189.531V190.18H237.664V189H242.531V188.891C242.51 188.516 242.432 188.151 242.297 187.797C242.167 187.443 241.958 187.151 241.672 186.922C241.385 186.693 240.995 186.578 240.5 186.578C240.172 186.578 239.87 186.648 239.594 186.789C239.318 186.924 239.081 187.128 238.883 187.398C238.685 187.669 238.531 188 238.422 188.391C238.312 188.781 238.258 189.232 238.258 189.742V190.07C238.258 190.471 238.312 190.849 238.422 191.203C238.536 191.552 238.701 191.859 238.914 192.125C239.133 192.391 239.396 192.599 239.703 192.75C240.016 192.901 240.37 192.977 240.766 192.977C241.276 192.977 241.708 192.872 242.062 192.664C242.417 192.456 242.727 192.177 242.992 191.828L243.867 192.523C243.685 192.799 243.453 193.062 243.172 193.312C242.891 193.562 242.544 193.766 242.133 193.922C241.727 194.078 241.245 194.156 240.688 194.156ZM247.109 186.875V194H245.664V185.547H247.07L247.109 186.875ZM249.75 185.5L249.742 186.844C249.622 186.818 249.508 186.802 249.398 186.797C249.294 186.786 249.174 186.781 249.039 186.781C248.706 186.781 248.411 186.833 248.156 186.938C247.901 187.042 247.685 187.188 247.508 187.375C247.331 187.562 247.19 187.786 247.086 188.047C246.987 188.302 246.922 188.583 246.891 188.891L246.484 189.125C246.484 188.615 246.534 188.135 246.633 187.688C246.737 187.24 246.896 186.844 247.109 186.5C247.323 186.151 247.594 185.88 247.922 185.688C248.255 185.49 248.651 185.391 249.109 185.391C249.214 185.391 249.333 185.404 249.469 185.43C249.604 185.451 249.698 185.474 249.75 185.5Z"
                            fill="white" fill-opacity="0.5" />
                        <path
                            d="M379.797 182.625H381.258L384.984 191.898L388.703 182.625H390.172L385.547 194H384.406L379.797 182.625ZM379.32 182.625H380.609L380.82 189.562V194H379.32V182.625ZM389.352 182.625H390.641V194H389.141V189.562L389.352 182.625ZM393.766 182.625H395.227L398.953 191.898L402.672 182.625H404.141L399.516 194H398.375L393.766 182.625ZM393.289 182.625H394.578L394.789 189.562V194H393.289V182.625ZM403.32 182.625H404.609V194H403.109V189.562L403.32 182.625ZM412.07 182.625L407.328 194.977H406.086L410.836 182.625H412.07ZM416.945 194H414.57L414.586 192.773H416.945C417.758 192.773 418.435 192.604 418.977 192.266C419.518 191.922 419.924 191.443 420.195 190.828C420.471 190.208 420.609 189.484 420.609 188.656V187.961C420.609 187.31 420.531 186.732 420.375 186.227C420.219 185.716 419.99 185.286 419.688 184.938C419.385 184.583 419.016 184.315 418.578 184.133C418.146 183.951 417.648 183.859 417.086 183.859H414.523V182.625H417.086C417.831 182.625 418.51 182.75 419.125 183C419.74 183.245 420.268 183.602 420.711 184.07C421.159 184.534 421.503 185.096 421.742 185.758C421.982 186.414 422.102 187.154 422.102 187.977V188.656C422.102 189.479 421.982 190.221 421.742 190.883C421.503 191.539 421.156 192.099 420.703 192.562C420.255 193.026 419.714 193.383 419.078 193.633C418.448 193.878 417.737 194 416.945 194ZM415.375 182.625V194H413.867V182.625H415.375ZM427.445 194H425.07L425.086 192.773H427.445C428.258 192.773 428.935 192.604 429.477 192.266C430.018 191.922 430.424 191.443 430.695 190.828C430.971 190.208 431.109 189.484 431.109 188.656V187.961C431.109 187.31 431.031 186.732 430.875 186.227C430.719 185.716 430.49 185.286 430.188 184.938C429.885 184.583 429.516 184.315 429.078 184.133C428.646 183.951 428.148 183.859 427.586 183.859H425.023V182.625H427.586C428.331 182.625 429.01 182.75 429.625 183C430.24 183.245 430.768 183.602 431.211 184.07C431.659 184.534 432.003 185.096 432.242 185.758C432.482 186.414 432.602 187.154 432.602 187.977V188.656C432.602 189.479 432.482 190.221 432.242 190.883C432.003 191.539 431.656 192.099 431.203 192.562C430.755 193.026 430.214 193.383 429.578 193.633C428.948 193.878 428.237 194 427.445 194ZM425.875 182.625V194H424.367V182.625H425.875Z"
                            fill="white" fill-opacity="0.5" />
                        <path
                            d="M458.188 190.383H459.688C459.609 191.102 459.404 191.745 459.07 192.312C458.737 192.88 458.266 193.331 457.656 193.664C457.047 193.992 456.286 194.156 455.375 194.156C454.708 194.156 454.102 194.031 453.555 193.781C453.013 193.531 452.547 193.177 452.156 192.719C451.766 192.255 451.464 191.701 451.25 191.055C451.042 190.404 450.938 189.68 450.938 188.883V187.75C450.938 186.953 451.042 186.232 451.25 185.586C451.464 184.935 451.768 184.378 452.164 183.914C452.565 183.451 453.047 183.094 453.609 182.844C454.172 182.594 454.805 182.469 455.508 182.469C456.367 182.469 457.094 182.63 457.688 182.953C458.281 183.276 458.742 183.724 459.07 184.297C459.404 184.865 459.609 185.523 459.688 186.273H458.188C458.115 185.742 457.979 185.286 457.781 184.906C457.583 184.521 457.302 184.224 456.938 184.016C456.573 183.807 456.096 183.703 455.508 183.703C455.003 183.703 454.557 183.799 454.172 183.992C453.792 184.185 453.471 184.458 453.211 184.812C452.956 185.167 452.763 185.591 452.633 186.086C452.503 186.581 452.438 187.13 452.438 187.734V188.883C452.438 189.44 452.495 189.964 452.609 190.453C452.729 190.943 452.909 191.372 453.148 191.742C453.388 192.112 453.693 192.404 454.062 192.617C454.432 192.826 454.87 192.93 455.375 192.93C456.016 192.93 456.526 192.828 456.906 192.625C457.286 192.422 457.573 192.13 457.766 191.75C457.964 191.37 458.104 190.914 458.188 190.383ZM463.359 182.625V194H461.852V182.625H463.359ZM469.773 192.273L473.125 182.625H474.758L470.547 194H469.383L469.773 192.273ZM466.641 182.625L469.961 192.273L470.375 194H469.211L465.008 182.625H466.641Z"
                            fill="white" fill-opacity="0.5" />
                    </g>
                    <path
                        d="M142.5 169C142.5 164.858 145.858 161.5 150 161.5H483C487.142 161.5 490.5 164.858 490.5 169V209C490.5 213.142 487.142 216.5 483 216.5H150C145.858 216.5 142.5 213.142 142.5 209V169Z"
                        stroke="url(#paint0_linear_8071_1450)" />
                </g>
            </g>
        </g>
        <rect x="116.5" y="82.5" width="400" height="895" rx="33.5"
            stroke="url(#paint1_linear_8071_1450)" stroke-opacity="0.35" stroke-width="3" />
        <rect y="32" width="624" height="388" fill="url(#paint2_linear_8071_1450)" />
        <g opacity="0.75" filter="url(#filter1_f_8071_1450)">
            <path
                d="M32 219C32 212.373 37.3726 207 44 207H388C394.627 207 400 212.373 400 219V251C400 257.627 394.627 263 388 263H44C37.3726 263 32 257.627 32 251V219Z"
                fill="#020617" />
            <path
                d="M44 204.5C35.9919 204.5 29.5 210.992 29.5 219V251C29.5 259.008 35.9919 265.5 44 265.5H388C396.008 265.5 402.5 259.008 402.5 251V219C402.5 210.992 396.008 204.5 388 204.5H44Z"
                stroke="url(#paint3_linear_8071_1450)" stroke-width="5" />
        </g>
        <path
            d="M44 206.5C37.0964 206.5 31.5 212.096 31.5 219V251C31.5 257.904 37.0964 263.5 44 263.5H388C394.904 263.5 400.5 257.904 400.5 251V219C400.5 212.096 394.904 206.5 388 206.5H44Z"
            fill="#020617" />
        <path
            d="M44 206.5C37.0964 206.5 31.5 212.096 31.5 219V251C31.5 257.904 37.0964 263.5 44 263.5H388C394.904 263.5 400.5 257.904 400.5 251V219C400.5 212.096 394.904 206.5 388 206.5H44Z"
            stroke="url(#paint4_linear_8071_1450)" />
        <g clip-path="url(#clip4_8071_1450)">
            <path d="M72 223H48V247H72V223Z" fill="#4F868E" />
            <path
                d="M62.44 231.084C61.9686 231.087 61.5042 231.198 61.0815 231.406C60.6589 231.615 60.2891 231.917 60 232.289C59.7112 231.917 59.3416 231.615 58.9192 231.406C58.4967 231.198 58.0324 231.087 57.5612 231.084C55.8037 231.084 54.375 232.596 54.375 234.458V238.147C54.375 238.346 54.454 238.537 54.5947 238.677C54.7353 238.818 54.9261 238.897 55.125 238.897C55.3239 238.897 55.5147 238.818 55.6553 238.677C55.796 238.537 55.875 238.346 55.875 238.147V234.456C55.875 233.421 56.6338 232.581 57.5663 232.581C58.4988 232.581 59.2575 233.423 59.2575 234.456V238.144C59.2575 238.343 59.3365 238.534 59.4772 238.675C59.6178 238.815 59.8086 238.894 60.0075 238.894C60.2064 238.894 60.3972 238.815 60.5378 238.675C60.6785 238.534 60.7575 238.343 60.7575 238.144V234.456C60.7575 233.421 61.5162 232.581 62.4487 232.581C63.3812 232.581 64.14 233.423 64.14 234.456V238.144C64.14 238.343 64.219 238.534 64.3597 238.675C64.5003 238.815 64.6911 238.894 64.89 238.894C65.0889 238.894 65.2797 238.815 65.4203 238.675C65.561 238.534 65.64 238.343 65.64 238.144V234.456C65.6262 232.596 64.1975 231.084 62.44 231.084Z"
                fill="#1E293B" />
            <path
                d="M60 225.616C57.5145 225.619 55.1317 226.607 53.3742 228.364C51.6167 230.121 50.628 232.503 50.625 234.988C50.628 237.473 51.6167 239.855 53.3742 241.612C55.1317 243.369 57.5145 244.357 60 244.36C62.4856 244.357 64.8686 243.369 66.6262 241.612C68.3838 239.855 69.3724 237.473 69.375 234.988C69.372 232.503 68.3833 230.121 66.6258 228.364C64.8683 226.607 62.4855 225.619 60 225.616ZM60 243.985C57.6139 243.982 55.3262 243.034 53.639 241.347C51.9517 239.66 51.0026 237.373 51 234.988C51.0026 232.603 51.9517 230.316 53.639 228.629C55.3262 226.942 57.6139 225.993 60 225.991C62.3861 225.993 64.6738 226.942 66.361 228.629C68.0483 230.316 68.9974 232.603 69 234.988C68.9974 237.373 68.0483 239.66 66.361 241.347C64.6738 243.034 62.3861 243.982 60 243.985Z"
                fill="#1E293B" />
        </g>
        <path
            d="M85.5312 229.633L81.7656 240H80.2266L84.5625 228.625H85.5547L85.5312 229.633ZM88.6875 240L84.9141 229.633L84.8906 228.625H85.8828L90.2344 240H88.6875ZM88.4922 235.789V237.023H82.1016V235.789H88.4922ZM96.6172 238.047V231.547H98.0703V240H96.6875L96.6172 238.047ZM96.8906 236.266L97.4922 236.25C97.4922 236.812 97.4323 237.333 97.3125 237.812C97.1979 238.286 97.0104 238.698 96.75 239.047C96.4896 239.396 96.1484 239.669 95.7266 239.867C95.3047 240.06 94.7917 240.156 94.1875 240.156C93.776 240.156 93.3984 240.096 93.0547 239.977C92.7161 239.857 92.4245 239.672 92.1797 239.422C91.9349 239.172 91.7448 238.846 91.6094 238.445C91.4792 238.044 91.4141 237.562 91.4141 237V231.547H92.8594V237.016C92.8594 237.396 92.901 237.711 92.9844 237.961C93.0729 238.206 93.1901 238.401 93.3359 238.547C93.487 238.688 93.6536 238.786 93.8359 238.844C94.0234 238.901 94.2161 238.93 94.4141 238.93C95.0286 238.93 95.5156 238.812 95.875 238.578C96.2344 238.339 96.4922 238.018 96.6484 237.617C96.8099 237.211 96.8906 236.76 96.8906 236.266ZM103.812 231.547V232.656H99.2422V231.547H103.812ZM100.789 229.492H102.234V237.906C102.234 238.193 102.279 238.409 102.367 238.555C102.456 238.701 102.57 238.797 102.711 238.844C102.852 238.891 103.003 238.914 103.164 238.914C103.284 238.914 103.409 238.904 103.539 238.883C103.674 238.857 103.776 238.836 103.844 238.82L103.852 240C103.737 240.036 103.586 240.07 103.398 240.102C103.216 240.138 102.995 240.156 102.734 240.156C102.38 240.156 102.055 240.086 101.758 239.945C101.461 239.805 101.224 239.57 101.047 239.242C100.875 238.909 100.789 238.461 100.789 237.898V229.492ZM104.969 235.867V235.688C104.969 235.078 105.057 234.513 105.234 233.992C105.411 233.466 105.667 233.01 106 232.625C106.333 232.234 106.737 231.932 107.211 231.719C107.685 231.5 108.216 231.391 108.805 231.391C109.398 231.391 109.932 231.5 110.406 231.719C110.885 231.932 111.292 232.234 111.625 232.625C111.964 233.01 112.221 233.466 112.398 233.992C112.576 234.513 112.664 235.078 112.664 235.688V235.867C112.664 236.477 112.576 237.042 112.398 237.562C112.221 238.083 111.964 238.539 111.625 238.93C111.292 239.315 110.888 239.617 110.414 239.836C109.945 240.049 109.414 240.156 108.82 240.156C108.227 240.156 107.693 240.049 107.219 239.836C106.745 239.617 106.339 239.315 106 238.93C105.667 238.539 105.411 238.083 105.234 237.562C105.057 237.042 104.969 236.477 104.969 235.867ZM106.414 235.688V235.867C106.414 236.289 106.464 236.688 106.562 237.062C106.661 237.432 106.81 237.76 107.008 238.047C107.211 238.333 107.464 238.56 107.766 238.727C108.068 238.888 108.419 238.969 108.82 238.969C109.216 238.969 109.562 238.888 109.859 238.727C110.161 238.56 110.411 238.333 110.609 238.047C110.807 237.76 110.956 237.432 111.055 237.062C111.159 236.688 111.211 236.289 111.211 235.867V235.688C111.211 235.271 111.159 234.878 111.055 234.508C110.956 234.133 110.805 233.802 110.602 233.516C110.404 233.224 110.154 232.995 109.852 232.828C109.555 232.661 109.206 232.578 108.805 232.578C108.409 232.578 108.06 232.661 107.758 232.828C107.461 232.995 107.211 233.224 107.008 233.516C106.81 233.802 106.661 234.133 106.562 234.508C106.464 234.878 106.414 235.271 106.414 235.688ZM116.406 240H114.961V230.812C114.961 230.172 115.086 229.63 115.336 229.188C115.586 228.745 115.943 228.409 116.406 228.18C116.87 227.951 117.419 227.836 118.055 227.836C118.43 227.836 118.797 227.883 119.156 227.977C119.516 228.065 119.885 228.177 120.266 228.312L120.023 229.531C119.784 229.438 119.505 229.349 119.188 229.266C118.875 229.177 118.531 229.133 118.156 229.133C117.536 229.133 117.089 229.273 116.812 229.555C116.542 229.831 116.406 230.25 116.406 230.812V240ZM118.133 231.547V232.656H113.625V231.547H118.133ZM120.977 231.547V240H119.531V231.547H120.977ZM124.922 228V240H123.469V228H124.922ZM128.812 228V240H127.359V228H128.812ZM137.242 238.5L139.414 231.547H140.367L140.18 232.93L137.969 240H137.039L137.242 238.5ZM135.781 231.547L137.633 238.578L137.766 240H136.789L134.336 231.547H135.781ZM142.445 238.523L144.211 231.547H145.648L143.195 240H142.227L142.445 238.523ZM140.578 231.547L142.703 238.383L142.945 240H142.023L139.75 232.914L139.562 231.547H140.578ZM148.703 231.547V240H147.25V231.547H148.703ZM147.141 229.305C147.141 229.07 147.211 228.872 147.352 228.711C147.497 228.549 147.711 228.469 147.992 228.469C148.268 228.469 148.479 228.549 148.625 228.711C148.776 228.872 148.852 229.07 148.852 229.305C148.852 229.529 148.776 229.721 148.625 229.883C148.479 230.039 148.268 230.117 147.992 230.117C147.711 230.117 147.497 230.039 147.352 229.883C147.211 229.721 147.141 229.529 147.141 229.305ZM154.562 231.547V232.656H149.992V231.547H154.562ZM151.539 229.492H152.984V237.906C152.984 238.193 153.029 238.409 153.117 238.555C153.206 238.701 153.32 238.797 153.461 238.844C153.602 238.891 153.753 238.914 153.914 238.914C154.034 238.914 154.159 238.904 154.289 238.883C154.424 238.857 154.526 238.836 154.594 238.82L154.602 240C154.487 240.036 154.336 240.07 154.148 240.102C153.966 240.138 153.745 240.156 153.484 240.156C153.13 240.156 152.805 240.086 152.508 239.945C152.211 239.805 151.974 239.57 151.797 239.242C151.625 238.909 151.539 238.461 151.539 237.898V229.492ZM157.703 228V240H156.258V228H157.703ZM157.359 235.453L156.758 235.43C156.763 234.852 156.849 234.318 157.016 233.828C157.182 233.333 157.417 232.904 157.719 232.539C158.021 232.174 158.38 231.893 158.797 231.695C159.219 231.492 159.685 231.391 160.195 231.391C160.612 231.391 160.987 231.448 161.32 231.562C161.654 231.672 161.938 231.849 162.172 232.094C162.411 232.339 162.594 232.656 162.719 233.047C162.844 233.432 162.906 233.904 162.906 234.461V240H161.453V234.445C161.453 234.003 161.388 233.648 161.258 233.383C161.128 233.112 160.938 232.917 160.688 232.797C160.438 232.672 160.13 232.609 159.766 232.609C159.406 232.609 159.078 232.685 158.781 232.836C158.49 232.987 158.237 233.195 158.023 233.461C157.815 233.727 157.651 234.031 157.531 234.375C157.417 234.714 157.359 235.073 157.359 235.453ZM169.734 228.625H171.195L174.922 237.898L178.641 228.625H180.109L175.484 240H174.344L169.734 228.625ZM169.258 228.625H170.547L170.758 235.562V240H169.258V228.625ZM179.289 228.625H180.578V240H179.078V235.562L179.289 228.625ZM186.516 240.156C185.927 240.156 185.393 240.057 184.914 239.859C184.44 239.656 184.031 239.372 183.688 239.008C183.349 238.643 183.089 238.211 182.906 237.711C182.724 237.211 182.633 236.664 182.633 236.07V235.742C182.633 235.055 182.734 234.443 182.938 233.906C183.141 233.365 183.417 232.906 183.766 232.531C184.115 232.156 184.51 231.872 184.953 231.68C185.396 231.487 185.854 231.391 186.328 231.391C186.932 231.391 187.453 231.495 187.891 231.703C188.333 231.911 188.695 232.203 188.977 232.578C189.258 232.948 189.466 233.385 189.602 233.891C189.737 234.391 189.805 234.938 189.805 235.531V236.18H183.492V235H188.359V234.891C188.339 234.516 188.26 234.151 188.125 233.797C187.995 233.443 187.786 233.151 187.5 232.922C187.214 232.693 186.823 232.578 186.328 232.578C186 232.578 185.698 232.648 185.422 232.789C185.146 232.924 184.909 233.128 184.711 233.398C184.513 233.669 184.359 234 184.25 234.391C184.141 234.781 184.086 235.232 184.086 235.742V236.07C184.086 236.471 184.141 236.849 184.25 237.203C184.365 237.552 184.529 237.859 184.742 238.125C184.961 238.391 185.224 238.599 185.531 238.75C185.844 238.901 186.198 238.977 186.594 238.977C187.104 238.977 187.536 238.872 187.891 238.664C188.245 238.456 188.555 238.177 188.82 237.828L189.695 238.523C189.513 238.799 189.281 239.062 189 239.312C188.719 239.562 188.372 239.766 187.961 239.922C187.555 240.078 187.073 240.156 186.516 240.156ZM195 240.156C194.411 240.156 193.878 240.057 193.398 239.859C192.924 239.656 192.516 239.372 192.172 239.008C191.833 238.643 191.573 238.211 191.391 237.711C191.208 237.211 191.117 236.664 191.117 236.07V235.742C191.117 235.055 191.219 234.443 191.422 233.906C191.625 233.365 191.901 232.906 192.25 232.531C192.599 232.156 192.995 231.872 193.438 231.68C193.88 231.487 194.339 231.391 194.812 231.391C195.417 231.391 195.938 231.495 196.375 231.703C196.818 231.911 197.18 232.203 197.461 232.578C197.742 232.948 197.951 233.385 198.086 233.891C198.221 234.391 198.289 234.938 198.289 235.531V236.18H191.977V235H196.844V234.891C196.823 234.516 196.745 234.151 196.609 233.797C196.479 233.443 196.271 233.151 195.984 232.922C195.698 232.693 195.307 232.578 194.812 232.578C194.484 232.578 194.182 232.648 193.906 232.789C193.63 232.924 193.393 233.128 193.195 233.398C192.997 233.669 192.844 234 192.734 234.391C192.625 234.781 192.57 235.232 192.57 235.742V236.07C192.57 236.471 192.625 236.849 192.734 237.203C192.849 237.552 193.013 237.859 193.227 238.125C193.445 238.391 193.708 238.599 194.016 238.75C194.328 238.901 194.682 238.977 195.078 238.977C195.589 238.977 196.021 238.872 196.375 238.664C196.729 238.456 197.039 238.177 197.305 237.828L198.18 238.523C197.997 238.799 197.766 239.062 197.484 239.312C197.203 239.562 196.857 239.766 196.445 239.922C196.039 240.078 195.557 240.156 195 240.156Z"
            fill="#E2E8F0" />
        <circle cx="597" cy="254" r="1" transform="rotate(-90 597 254)" fill="white"
            fill-opacity="0.1" />
        <circle cx="608" cy="280" r="1" transform="rotate(-90 608 280)" fill="white"
            fill-opacity="0.1" />
        <circle cx="619" cy="254" r="1" transform="rotate(-90 619 254)" fill="white"
            fill-opacity="0.1" />
        <circle cx="607" cy="262" r="1" transform="rotate(-90 607 262)" fill="white"
            fill-opacity="0.1" />
        <circle cx="623" cy="236" r="1" transform="rotate(-90 623 236)" fill="white"
            fill-opacity="0.1" />
        <circle cx="615" cy="214" r="1" transform="rotate(-90 615 214)" fill="white"
            fill-opacity="0.1" />
        <circle cx="597" cy="205" r="1" transform="rotate(-90 597 205)" fill="white"
            fill-opacity="0.35" />
        <circle cx="588" cy="191" r="1" transform="rotate(-90 588 191)" fill="white"
            fill-opacity="0.1" />
        <circle cx="597" cy="178" r="1" transform="rotate(-90 597 178)" fill="white"
            fill-opacity="0.1" />
        <circle cx="608" cy="236" r="1" transform="rotate(-90 608 236)" fill="white"
            fill-opacity="0.1" />
        <circle cx="597" cy="225" r="1" transform="rotate(-90 597 225)" fill="white"
            fill-opacity="0.1" />
        <circle cx="471.5" cy="225.5" r="1" fill="white" fill-opacity="0.1" />
        <circle cx="445" cy="225.5" r="1" fill="white" fill-opacity="0.1" />
        <circle cx="426" cy="225.5" r="1" fill="white" fill-opacity="0.1" />
        <circle cx="485.5" cy="225.5" r="1" fill="white" fill-opacity="0.35" />
        <circle cx="457" cy="234.5" r="1" fill="white" fill-opacity="0.1" />
        <circle cx="497.5" cy="245.5" r="1" fill="white" fill-opacity="0.35" />
        <circle cx="466" cy="245.5" r="1" fill="white" fill-opacity="0.1" />
        <circle cx="479.5" cy="256.5" r="1" fill="white" fill-opacity="0.1" />
        <circle cx="489.5" cy="252.5" r="1" fill="white" fill-opacity="0.1" />
        <circle cx="511" cy="260.5" r="1" fill="white" fill-opacity="0.1" />
        <circle cx="537.5" cy="252.5" r="1" fill="white" fill-opacity="0.1" />
        <circle cx="546.5" cy="234.5" r="1" fill="white" fill-opacity="0.35" />
        <circle cx="537.5" cy="225.5" r="1" fill="white" fill-opacity="0.1" />
        <circle cx="573.5" cy="234.5" r="1" fill="white" fill-opacity="0.1" />
        <circle cx="573.5" cy="225.5" r="1" fill="white" fill-opacity="0.1" />
        <circle cx="446" cy="245.5" r="1" fill="white" fill-opacity="0.1" />
        <circle cx="511" cy="245.5" r="1" fill="white" fill-opacity="0.1" />
        <circle cx="526.5" cy="234.5" r="1" fill="white" fill-opacity="0.1" />
        <circle cx="510.5" cy="234.5" r="1" fill="white" fill-opacity="0.1" />
    </g>
    <defs>
        <filter id="filter0_d_8071_1450" x="139" y="158" width="355" height="62"
            filterUnits="userSpaceOnUse" color-interpolation-filters="sRGB">
            <feFlood flood-opacity="0" result="BackgroundImageFix" />
            <feColorMatrix in="SourceAlpha" type="matrix"
                values="0 0 0 0 0 0 0 0 0 0 0 0 0 0 0 0 0 0 127 0" result="hardAlpha" />
            <feMorphology radius="3" operator="dilate" in="SourceAlpha"
                result="effect1_dropShadow_8071_1450" />
            <feOffset />
            <feComposite in2="hardAlpha" operator="out" />
            <feColorMatrix type="matrix"
                values="0 0 0 0 0.392157 0 0 0 0 0.454902 0 0 0 0 0.545098 0 0 0 0.4 0" />
            <feBlend mode="normal" in2="BackgroundImageFix" result="effect1_dropShadow_8071_1450" />
            <feBlend mode="normal" in="SourceGraphic" in2="effect1_dropShadow_8071_1450"
                result="shape" />
        </filter>
        <filter id="filter1_f_8071_1450" x="-3" y="172" width="438" height="126"
            filterUnits="userSpaceOnUse" color-interpolation-filters="sRGB">
            <feFlood flood-opacity="0" result="BackgroundImageFix" />
            <feBlend mode="normal" in="SourceGraphic" in2="BackgroundImageFix" result="shape" />
            <feGaussianBlur stdDeviation="15" result="effect1_foregroundBlur_8071_1450" />
        </filter>
        <linearGradient id="paint0_linear_8071_1450" x1="142" y1="161" x2="482.182" y2="250.513"
            gradientUnits="userSpaceOnUse">
            <stop stop-color="#9AC2C6" />
            <stop offset="1" stop-color="#4F868E" />
        </linearGradient>
        <linearGradient id="paint1_linear_8071_1450" x1="316.5" y1="84" x2="316.5" y2="276.5"
            gradientUnits="userSpaceOnUse">
            <stop stop-color="white" stop-opacity="0.35" />
            <stop offset="1" stop-color="white" stop-opacity="0" />
        </linearGradient>
        <linearGradient id="paint2_linear_8071_1450" x1="312" y1="106" x2="312" y2="221"
            gradientUnits="userSpaceOnUse">
            <stop stop-color="#020617" stop-opacity="0" />
            <stop offset="1" stop-color="#020617" />
        </linearGradient>
        <linearGradient id="paint3_linear_8071_1450" x1="32.3709" y1="207" x2="326.633" y2="384.211"
            gradientUnits="userSpaceOnUse">
            <stop stop-color="#D2710D" />
            <stop offset="0.5" stop-color="#E290D8" />
            <stop offset="1" stop-color="#4F868E" />
        </linearGradient>
        <linearGradient id="paint4_linear_8071_1450" x1="32.3709" y1="207" x2="326.633" y2="384.211"
            gradientUnits="userSpaceOnUse">
            <stop stop-color="#D2710D" />
            <stop offset="0.5" stop-color="#E290D8" />
            <stop offset="1" stop-color="#4F868E" />
        </linearGradient>
      
      
        
    </defs>
</svg>