<svg width="624" height="360" viewBox="0 0 624 360" fill="none" xmlns="http://www.w3.org/2000/svg">
<g clip-path="url(#clip0_8013_59)">
<path d="M434.5 142C455.186 142 469.103 142 477.001 142C481.419 142 485 138.418 485 134V65.6383C485 61.1664 488.666 57.5628 493.137 57.6395L572.5 59" stroke="url(#paint0_linear_8013_59)" stroke-dasharray="2 2"/>
<path d="M192 168H162.101C157.683 168 154.101 164.419 154.101 160V160C154.101 155.582 150.52 152 146.101 152H113" stroke="url(#paint1_linear_8013_59)" stroke-dasharray="2 2"/>
<path d="M225 260H373.493C377.911 260 381.493 256.419 381.493 252.001C381.493 241.056 381.493 229.603 381.493 218.991" stroke="url(#paint2_linear_8013_59)" stroke-dasharray="2 2"/>
<path d="M432 168.001L518.5 168" stroke="url(#paint3_linear_8013_59)" stroke-dasharray="2 2"/>
<path d="M572 256L464.458 256C460.039 256 456.458 252.419 456.458 248L456.458 203C456.458 198.582 452.876 195 448.458 195L432 195" stroke="url(#paint4_linear_8013_59)" stroke-dasharray="2 2"/>
<g filter="url(#filter0_f_8013_59)">
<path d="M529.119 57.7119L531.712 55.1193C531.871 54.9602 532.129 54.9602 532.288 55.1193C532.447 55.2784 532.447 55.5364 532.288 55.6955L530.391 57.5926C530.123 57.9115 530.105 58.087 530.391 58.4074L532.288 60.3045C532.447 60.4636 532.447 60.7216 532.288 60.8807C532.129 61.0398 531.871 61.0398 531.712 60.8807L529.119 58.2881C528.96 58.129 528.96 57.871 529.119 57.7119Z" fill="#4F868E"/>
</g>
<path d="M529.119 57.7119L531.712 55.1193C531.871 54.9602 532.129 54.9602 532.288 55.1193C532.447 55.2784 532.447 55.5364 532.288 55.6955L530.391 57.5926C530.123 57.9115 530.105 58.087 530.391 58.4074L532.288 60.3045C532.447 60.4636 532.447 60.7216 532.288 60.8807C532.129 61.0398 531.871 61.0398 531.712 60.8807L529.119 58.2881C528.96 58.129 528.96 57.871 529.119 57.7119Z" fill="#4F868E"/>
<g filter="url(#filter1_f_8013_59)">
<path d="M428.288 275.004L430.881 272.412C431.04 272.253 431.04 271.995 430.881 271.836C430.721 271.677 430.464 271.677 430.304 271.836L428.407 273.733C428.088 274.001 427.913 274.018 427.592 273.733L425.695 271.836C425.536 271.677 425.278 271.677 425.119 271.836C424.96 271.995 424.96 272.253 425.119 272.412L427.712 275.004C427.871 275.163 428.129 275.163 428.288 275.004Z" fill="#4F868E"/>
</g>
<path d="M428.288 275.004L430.881 272.412C431.04 272.253 431.04 271.995 430.881 271.836C430.721 271.677 430.464 271.677 430.304 271.836L428.407 273.733C428.088 274.001 427.913 274.018 427.592 273.733L425.695 271.836C425.536 271.677 425.278 271.677 425.119 271.836C424.96 271.995 424.96 272.253 425.119 272.412L427.712 275.004C427.871 275.163 428.129 275.163 428.288 275.004Z" fill="#4F868E"/>
<g filter="url(#filter2_f_8013_59)">
<path d="M456.159 167.616L459.616 164.16C459.828 163.947 460.172 163.947 460.384 164.16C460.596 164.372 460.596 164.716 460.384 164.928L457.854 167.457C457.497 167.882 457.474 168.116 457.854 168.544L460.384 171.073C460.596 171.285 460.596 171.629 460.384 171.841C460.172 172.054 459.828 172.054 459.616 171.841L456.159 168.385C455.947 168.172 455.947 167.829 456.159 167.616Z" fill="#4F868E"/>
</g>
<path d="M456.159 167.616L459.616 164.16C459.828 163.947 460.172 163.947 460.384 164.16C460.596 164.372 460.596 164.716 460.384 164.928L457.854 167.457C457.497 167.882 457.474 168.116 457.854 168.544L460.384 171.073C460.596 171.285 460.596 171.629 460.384 171.841C460.172 172.054 459.828 172.054 459.616 171.841L456.159 168.385C455.947 168.172 455.947 167.829 456.159 167.616Z" fill="#4F868E"/>
<path d="M192 142L175.5 142C171.082 142 167.5 138.418 167.5 134L167.5 66.5C167.5 62.0817 163.918 58.5 159.5 58.5L72.9999 58.5" stroke="url(#paint5_linear_8013_59)" stroke-dasharray="2 2"/>
<g filter="url(#filter3_f_8013_59)">
<path d="M136.288 194.712L133.695 192.119C133.536 191.96 133.278 191.96 133.119 192.119C132.96 192.278 132.96 192.536 133.119 192.695L135.016 194.593C135.284 194.911 135.302 195.087 135.016 195.407L133.119 197.305C132.96 197.464 132.96 197.722 133.119 197.881C133.278 198.04 133.536 198.04 133.695 197.881L136.288 195.288C136.447 195.129 136.447 194.871 136.288 194.712Z" fill="#4F868E"/>
</g>
<path d="M136.288 194.712L133.695 192.119C133.536 191.96 133.278 191.96 133.119 192.119C132.96 192.278 132.96 192.536 133.119 192.695L135.016 194.593C135.284 194.911 135.302 195.087 135.016 195.407L133.119 197.305C132.96 197.464 132.96 197.722 133.119 197.881C133.278 198.04 133.536 198.04 133.695 197.881L136.288 195.288C136.447 195.129 136.447 194.871 136.288 194.712Z" fill="#4F868E"/>
<g filter="url(#filter4_f_8013_59)">
<path d="M177.384 167.616L173.927 164.159C173.715 163.947 173.371 163.947 173.159 164.159C172.947 164.371 172.947 164.715 173.159 164.927L175.689 167.457C176.046 167.882 176.069 168.116 175.689 168.543L173.159 171.073C172.947 171.285 172.947 171.629 173.159 171.841C173.371 172.053 173.715 172.053 173.927 171.841L177.384 168.384C177.596 168.172 177.596 167.828 177.384 167.616Z" fill="#4F868E"/>
</g>
<path d="M177.384 167.616L173.927 164.159C173.715 163.947 173.371 163.947 173.159 164.159C172.947 164.371 172.947 164.715 173.159 164.927L175.689 167.457C176.046 167.882 176.069 168.116 175.689 168.543L173.159 171.073C172.947 171.285 172.947 171.629 173.159 171.841C173.371 172.053 173.715 172.053 173.927 171.841L177.384 168.384C177.596 168.172 177.596 167.828 177.384 167.616Z" fill="#4F868E"/>
<g filter="url(#filter5_f_8013_59)">
<path d="M110.12 58.1639L107.096 55.1392C106.91 54.9536 106.609 54.9536 106.423 55.1392C106.238 55.3248 106.238 55.6258 106.423 55.8114L108.637 58.0247C108.95 58.3967 108.97 58.6015 108.637 58.9753L106.423 61.1886C106.238 61.3742 106.238 61.6752 106.423 61.8608C106.609 62.0464 106.91 62.0464 107.096 61.8608L110.12 58.8361C110.306 58.6505 110.306 58.3495 110.12 58.1639Z" fill="#4F868E"/>
</g>
<path d="M110.12 58.1639L107.096 55.1392C106.91 54.9536 106.609 54.9536 106.423 55.1392C106.238 55.3248 106.238 55.6258 106.423 55.8114L108.637 58.0247C108.95 58.3967 108.97 58.6015 108.637 58.9753L106.423 61.1886C106.238 61.3742 106.238 61.6752 106.423 61.8608C106.609 62.0464 106.91 62.0464 107.096 61.8608L110.12 58.8361C110.306 58.6505 110.306 58.3495 110.12 58.1639Z" fill="#4F868E"/>
<path d="M42 239H96C100.418 239 104 235.418 104 231V203C104 198.582 107.582 195 112 195H192" stroke="url(#paint6_linear_8013_59)" stroke-dasharray="2 2"/>
<g filter="url(#filter6_f_8013_59)">
<path d="M504.159 255.616L507.616 252.159C507.828 251.947 508.172 251.947 508.384 252.159C508.596 252.371 508.596 252.715 508.384 252.927L505.855 255.457C505.497 255.882 505.474 256.116 505.855 256.543L508.384 259.073C508.596 259.285 508.596 259.629 508.384 259.841C508.172 260.053 507.828 260.053 507.616 259.841L504.159 256.384C503.947 256.172 503.947 255.828 504.159 255.616Z" fill="#4F868E"/>
</g>
<path d="M504.159 255.616L507.616 252.159C507.828 251.947 508.172 251.947 508.384 252.159C508.596 252.371 508.596 252.715 508.384 252.927L505.855 255.457C505.497 255.882 505.474 256.116 505.855 256.543L508.384 259.073C508.596 259.285 508.596 259.629 508.384 259.841C508.172 260.053 507.828 260.053 507.616 259.841L504.159 256.384C503.947 256.172 503.947 255.828 504.159 255.616Z" fill="#4F868E"/>
<ellipse cx="345.056" cy="16.5" rx="0.5" ry="0.5" transform="rotate(90 345.056 16.5)" fill="#020617" fill-opacity="0.15"/>
<ellipse cx="244.056" cy="98.2822" rx="0.5" ry="0.5" transform="rotate(90 244.056 98.2822)" fill="#020617" fill-opacity="0.35"/>
<ellipse cx="255.723" cy="109.172" rx="0.5" ry="0.5" transform="rotate(90 255.723 109.172)" fill="#020617" fill-opacity="0.15"/>
<ellipse cx="244.056" cy="119.283" rx="0.5" ry="0.5" transform="rotate(90 244.056 119.283)" fill="#4F868E"/>
<ellipse cx="347.11" cy="82.8999" rx="0.5" ry="0.5" transform="rotate(180 347.11 82.8999)" fill="#020617" fill-opacity="0.15"/>
<ellipse cx="367.722" cy="82.9004" rx="0.5" ry="0.5" transform="rotate(180 367.722 82.9004)" fill="#020617" fill-opacity="0.15"/>
<ellipse cx="382.5" cy="82.8999" rx="0.5" ry="0.5" transform="rotate(180 382.5 82.8999)" fill="#4F868E"/>
<ellipse cx="336.22" cy="82.9004" rx="0.5" ry="0.5" transform="rotate(180 336.22 82.9004)" fill="#020617" fill-opacity="0.35"/>
<ellipse cx="358.388" cy="75.8999" rx="0.5" ry="0.5" transform="rotate(180 358.388 75.8999)" fill="#4F868E"/>
<ellipse cx="312.497" cy="43.6133" rx="0.5" ry="0.5" transform="rotate(180 312.497 43.6133)" fill="#4F868E"/>
<ellipse cx="319.497" cy="24.9458" rx="0.5" ry="0.5" transform="rotate(180 319.497 24.9458)" fill="#4F868E"/>
<ellipse cx="326.887" cy="67.3442" rx="0.5" ry="0.5" transform="rotate(180 326.887 67.3442)" fill="#020617" fill-opacity="0.35"/>
<ellipse cx="295.385" cy="55.6768" rx="0.5" ry="0.5" transform="rotate(180 295.385 55.6768)" fill="#020617" fill-opacity="0.15"/>
<ellipse cx="303.941" cy="35.0571" rx="0.5" ry="0.5" transform="rotate(180 303.941 35.0571)" fill="#F4B62B"/>
<ellipse cx="286.829" cy="50.2319" rx="0.5" ry="0.5" transform="rotate(180 286.829 50.2319)" fill="#020617" fill-opacity="0.15"/>
<ellipse cx="275.162" cy="61.8994" rx="0.5" ry="0.5" transform="rotate(180 275.162 61.8994)" fill="#020617" fill-opacity="0.15"/>
<ellipse cx="244.828" cy="83.2812" rx="0.5" ry="0.5" transform="rotate(180 244.828 83.2812)" fill="#020617" fill-opacity="0.15"/>
<ellipse cx="285.279" cy="75.8999" rx="0.5" ry="0.5" transform="rotate(180 285.279 75.8999)" fill="#020617" fill-opacity="0.35"/>
<ellipse cx="295.774" cy="82.9004" rx="0.5" ry="0.5" transform="rotate(180 295.774 82.9004)" fill="#020617" fill-opacity="0.15"/>
<ellipse cx="268.168" cy="82.8999" rx="0.5" ry="0.5" transform="rotate(180 268.168 82.8999)" fill="#F4B62B"/>
<ellipse cx="312.497" cy="60.7246" rx="0.5" ry="0.5" transform="rotate(180 312.497 60.7246)" fill="#020617" fill-opacity="0.15"/>
<ellipse cx="304.33" cy="75.8999" rx="0.5" ry="0.5" transform="rotate(180 304.33 75.8999)" fill="#020617" fill-opacity="0.15"/>
<ellipse cx="335.831" cy="24.9458" rx="0.5" ry="0.5" transform="rotate(180 335.831 24.9458)" fill="#BC52AD"/>
<ellipse cx="330.392" cy="55.6768" rx="0.5" ry="0.5" transform="rotate(180 330.392 55.6768)" fill="#BC52AD"/>
<path d="M192 125C192 109.536 204.536 97 220 97H404C419.464 97 432 109.536 432 125V339C432 354.464 419.464 367 404 367H220C204.536 367 192 354.464 192 339V125Z" fill="url(#paint7_linear_8013_59)"/>
<path d="M220 94.5C203.155 94.5 189.5 108.155 189.5 125V339C189.5 355.845 203.155 369.5 220 369.5H404C420.845 369.5 434.5 355.845 434.5 339V125C434.5 108.155 420.845 94.5 404 94.5H220Z" stroke="url(#paint8_linear_8013_59)" stroke-opacity="0.1" stroke-width="5"/>
<path d="M214.476 138L218.109 127.878H219.957L223.59 138H221.882L220.979 135.459H217.101L216.191 138H214.476ZM217.507 133.947H220.552L219.033 129.53L217.507 133.947ZM227.581 138.14C226.625 138.14 225.873 137.811 225.327 137.153C224.781 136.495 224.508 135.559 224.508 134.346C224.508 133.59 224.618 132.934 224.837 132.379C225.061 131.819 225.39 131.387 225.824 131.084C226.258 130.776 226.793 130.622 227.427 130.622C227.726 130.622 227.997 130.659 228.239 130.734C228.487 130.804 228.706 130.897 228.897 131.014C229.089 131.131 229.25 131.259 229.38 131.399C229.516 131.539 229.621 131.679 229.695 131.819V127.598H231.41V138H230.15L229.961 136.516C229.901 136.689 229.814 136.871 229.702 137.062C229.595 137.249 229.448 137.424 229.261 137.587C229.079 137.75 228.851 137.883 228.575 137.986C228.3 138.089 227.969 138.14 227.581 138.14ZM227.931 136.887C228.543 136.887 228.988 136.689 229.268 136.292C229.553 135.891 229.695 135.228 229.695 134.304C229.691 133.777 229.625 133.333 229.499 132.974C229.378 132.615 229.191 132.344 228.939 132.162C228.687 131.98 228.358 131.889 227.952 131.889C227.439 131.889 227.017 132.078 226.685 132.456C226.359 132.834 226.195 133.45 226.195 134.304C226.195 135.153 226.347 135.797 226.65 136.236C226.954 136.67 227.381 136.887 227.931 136.887ZM236.087 138.14C235.13 138.14 234.379 137.811 233.833 137.153C233.287 136.495 233.014 135.559 233.014 134.346C233.014 133.59 233.124 132.934 233.343 132.379C233.567 131.819 233.896 131.387 234.33 131.084C234.764 130.776 235.298 130.622 235.933 130.622C236.232 130.622 236.502 130.659 236.745 130.734C236.992 130.804 237.212 130.897 237.403 131.014C237.594 131.131 237.755 131.259 237.886 131.399C238.021 131.539 238.126 131.679 238.201 131.819V127.598H239.916V138H238.656L238.467 136.516C238.406 136.689 238.32 136.871 238.208 137.062C238.101 137.249 237.954 137.424 237.767 137.587C237.585 137.75 237.356 137.883 237.081 137.986C236.806 138.089 236.474 138.14 236.087 138.14ZM236.437 136.887C237.048 136.887 237.494 136.689 237.774 136.292C238.059 135.891 238.201 135.228 238.201 134.304C238.196 133.777 238.131 133.333 238.005 132.974C237.884 132.615 237.697 132.344 237.445 132.162C237.193 131.98 236.864 131.889 236.458 131.889C235.945 131.889 235.522 132.078 235.191 132.456C234.864 132.834 234.701 133.45 234.701 134.304C234.701 135.153 234.853 135.797 235.156 136.236C235.459 136.67 235.886 136.887 236.437 136.887ZM248.157 138.14C247.494 138.14 246.904 137.995 246.386 137.706C245.873 137.412 245.469 136.987 245.175 136.432C244.881 135.872 244.734 135.198 244.734 134.409C244.734 133.658 244.872 133 245.147 132.435C245.427 131.866 245.821 131.422 246.33 131.105C246.843 130.783 247.452 130.622 248.157 130.622C248.722 130.622 249.219 130.734 249.648 130.958C250.077 131.182 250.42 131.492 250.677 131.889C250.938 132.286 251.095 132.736 251.146 133.24H249.697C249.66 133.021 249.578 132.813 249.452 132.617C249.326 132.416 249.156 132.255 248.941 132.134C248.731 132.008 248.474 131.945 248.171 131.945C247.625 131.945 247.184 132.146 246.848 132.547C246.512 132.948 246.344 133.564 246.344 134.395C246.344 135.16 246.503 135.769 246.82 136.222C247.142 136.675 247.602 136.901 248.199 136.901C248.498 136.901 248.754 136.836 248.969 136.705C249.184 136.57 249.352 136.404 249.473 136.208C249.599 136.007 249.678 135.807 249.711 135.606H251.125C251.083 136.096 250.931 136.532 250.67 136.915C250.409 137.298 250.063 137.599 249.634 137.818C249.205 138.033 248.712 138.14 248.157 138.14ZM252.763 138V130.762H254.394V132.33C254.511 131.971 254.677 131.665 254.891 131.413C255.111 131.156 255.367 130.96 255.661 130.825C255.955 130.69 256.275 130.622 256.62 130.622C256.704 130.622 256.786 130.627 256.865 130.636C256.945 130.645 257.003 130.662 257.04 130.685V132.316C256.989 132.293 256.921 132.276 256.837 132.267C256.758 132.258 256.688 132.253 256.627 132.253C256.277 132.225 255.967 132.239 255.696 132.295C255.43 132.351 255.204 132.447 255.017 132.582C254.835 132.713 254.698 132.881 254.604 133.086C254.511 133.287 254.464 133.522 254.464 133.793V138H252.763ZM261.61 138.14C260.915 138.14 260.301 137.993 259.769 137.699C259.242 137.4 258.829 136.976 258.53 136.425C258.236 135.874 258.089 135.219 258.089 134.458C258.089 133.716 258.222 133.058 258.488 132.484C258.759 131.905 259.149 131.45 259.657 131.119C260.171 130.788 260.789 130.622 261.512 130.622C262.226 130.622 262.826 130.774 263.311 131.077C263.797 131.38 264.165 131.805 264.417 132.351C264.669 132.892 264.795 133.527 264.795 134.255V134.773H259.79C259.786 135.184 259.851 135.548 259.986 135.865C260.122 136.182 260.322 136.432 260.588 136.614C260.854 136.791 261.183 136.88 261.575 136.88C261.977 136.88 262.324 136.791 262.618 136.614C262.917 136.432 263.115 136.157 263.213 135.788H264.767C264.683 136.292 264.483 136.719 264.165 137.069C263.853 137.419 263.47 137.685 263.017 137.867C262.569 138.049 262.1 138.14 261.61 138.14ZM259.783 133.716H263.185C263.185 133.366 263.122 133.051 262.996 132.771C262.875 132.486 262.691 132.262 262.443 132.099C262.196 131.931 261.883 131.847 261.505 131.847C261.132 131.847 260.817 131.938 260.56 132.12C260.304 132.302 260.11 132.538 259.979 132.827C259.849 133.112 259.783 133.408 259.783 133.716ZM269.181 138.14C268.224 138.14 267.473 137.811 266.927 137.153C266.381 136.495 266.108 135.559 266.108 134.346C266.108 133.59 266.218 132.934 266.437 132.379C266.661 131.819 266.99 131.387 267.424 131.084C267.858 130.776 268.392 130.622 269.027 130.622C269.326 130.622 269.596 130.659 269.839 130.734C270.086 130.804 270.306 130.897 270.497 131.014C270.688 131.131 270.849 131.259 270.98 131.399C271.115 131.539 271.22 131.679 271.295 131.819V127.598H273.01V138H271.75L271.561 136.516C271.5 136.689 271.414 136.871 271.302 137.062C271.195 137.249 271.048 137.424 270.861 137.587C270.679 137.75 270.45 137.883 270.175 137.986C269.9 138.089 269.568 138.14 269.181 138.14ZM269.531 136.887C270.142 136.887 270.588 136.689 270.868 136.292C271.153 135.891 271.295 135.228 271.295 134.304C271.29 133.777 271.225 133.333 271.099 132.974C270.978 132.615 270.791 132.344 270.539 132.162C270.287 131.98 269.958 131.889 269.552 131.889C269.039 131.889 268.616 132.078 268.285 132.456C267.958 132.834 267.795 133.45 267.795 134.304C267.795 135.153 267.947 135.797 268.25 136.236C268.553 136.67 268.98 136.887 269.531 136.887ZM275.095 138V130.762H276.726V138H275.095ZM275.067 129.495V127.885H276.754V129.495H275.067ZM281.651 138.056C281.077 138.056 280.632 137.981 280.314 137.832C280.002 137.678 279.785 137.461 279.663 137.181C279.542 136.901 279.481 136.567 279.481 136.18V131.966H278.305V130.762H279.53L279.957 128.613H281.182V130.755H282.799V131.966H281.182L281.189 136.117C281.189 136.332 281.213 136.49 281.259 136.593C281.311 136.691 281.39 136.756 281.497 136.789C281.609 136.817 281.756 136.831 281.938 136.831H282.834V137.909C282.736 137.946 282.592 137.979 282.4 138.007C282.214 138.04 281.964 138.056 281.651 138.056ZM290.729 138.14C290.066 138.14 289.476 137.995 288.958 137.706C288.445 137.412 288.041 136.987 287.747 136.432C287.453 135.872 287.306 135.198 287.306 134.409C287.306 133.658 287.444 133 287.719 132.435C287.999 131.866 288.393 131.422 288.902 131.105C289.415 130.783 290.024 130.622 290.729 130.622C291.294 130.622 291.791 130.734 292.22 130.958C292.649 131.182 292.992 131.492 293.249 131.889C293.51 132.286 293.667 132.736 293.718 133.24H292.269C292.232 133.021 292.15 132.813 292.024 132.617C291.898 132.416 291.728 132.255 291.513 132.134C291.303 132.008 291.046 131.945 290.743 131.945C290.197 131.945 289.756 132.146 289.42 132.547C289.084 132.948 288.916 133.564 288.916 134.395C288.916 135.16 289.075 135.769 289.392 136.222C289.714 136.675 290.174 136.901 290.771 136.901C291.07 136.901 291.326 136.836 291.541 136.705C291.756 136.57 291.924 136.404 292.045 136.208C292.171 136.007 292.25 135.807 292.283 135.606H293.697C293.655 136.096 293.503 136.532 293.242 136.915C292.981 137.298 292.635 137.599 292.206 137.818C291.777 138.033 291.284 138.14 290.729 138.14ZM297.428 138.14C296.966 138.14 296.551 138.056 296.182 137.888C295.818 137.715 295.531 137.47 295.321 137.153C295.116 136.831 295.013 136.441 295.013 135.984C295.013 135.186 295.3 134.584 295.874 134.178C296.453 133.772 297.372 133.56 298.632 133.541L299.717 133.513V133.023C299.717 132.64 299.603 132.342 299.374 132.127C299.15 131.908 298.8 131.8 298.324 131.805C297.97 131.81 297.648 131.894 297.358 132.057C297.069 132.216 296.878 132.484 296.784 132.862H295.335C295.363 132.367 295.506 131.954 295.762 131.623C296.024 131.287 296.381 131.037 296.833 130.874C297.286 130.706 297.809 130.622 298.401 130.622C299.092 130.622 299.654 130.713 300.088 130.895C300.522 131.077 300.842 131.341 301.047 131.686C301.253 132.027 301.355 132.44 301.355 132.925V138H299.92L299.78 136.698C299.524 137.244 299.195 137.622 298.793 137.832C298.397 138.037 297.942 138.14 297.428 138.14ZM297.981 136.985C298.191 136.985 298.399 136.948 298.604 136.873C298.81 136.794 298.994 136.689 299.157 136.558C299.325 136.423 299.458 136.273 299.556 136.11C299.659 135.947 299.713 135.776 299.717 135.599V134.458L298.828 134.472C298.39 134.477 298.005 134.523 297.673 134.612C297.347 134.701 297.092 134.843 296.91 135.039C296.728 135.23 296.637 135.487 296.637 135.809C296.637 136.178 296.766 136.467 297.022 136.677C297.279 136.882 297.599 136.985 297.981 136.985ZM303.239 138V130.762H304.87V132.33C304.987 131.971 305.153 131.665 305.367 131.413C305.587 131.156 305.843 130.96 306.137 130.825C306.431 130.69 306.751 130.622 307.096 130.622C307.18 130.622 307.262 130.627 307.341 130.636C307.421 130.645 307.479 130.662 307.516 130.685V132.316C307.465 132.293 307.397 132.276 307.313 132.267C307.234 132.258 307.164 132.253 307.103 132.253C306.753 132.225 306.443 132.239 306.172 132.295C305.906 132.351 305.68 132.447 305.493 132.582C305.311 132.713 305.174 132.881 305.08 133.086C304.987 133.287 304.94 133.522 304.94 133.793V138H303.239ZM311.575 138.14C310.619 138.14 309.867 137.811 309.321 137.153C308.775 136.495 308.502 135.559 308.502 134.346C308.502 133.59 308.612 132.934 308.831 132.379C309.055 131.819 309.384 131.387 309.818 131.084C310.252 130.776 310.787 130.622 311.421 130.622C311.72 130.622 311.991 130.659 312.233 130.734C312.481 130.804 312.7 130.897 312.891 131.014C313.083 131.131 313.244 131.259 313.374 131.399C313.51 131.539 313.615 131.679 313.689 131.819V127.598H315.404V138H314.144L313.955 136.516C313.895 136.689 313.808 136.871 313.696 137.062C313.589 137.249 313.442 137.424 313.255 137.587C313.073 137.75 312.845 137.883 312.569 137.986C312.294 138.089 311.963 138.14 311.575 138.14ZM311.925 136.887C312.537 136.887 312.982 136.689 313.262 136.292C313.547 135.891 313.689 135.228 313.689 134.304C313.685 133.777 313.619 133.333 313.493 132.974C313.372 132.615 313.185 132.344 312.933 132.162C312.681 131.98 312.352 131.889 311.946 131.889C311.433 131.889 311.011 132.078 310.679 132.456C310.353 132.834 310.189 133.45 310.189 134.304C310.189 135.153 310.341 135.797 310.644 136.236C310.948 136.67 311.375 136.887 311.925 136.887Z" fill="#020617" fill-opacity="0.35"/>
<path d="M218.38 171.12C217.596 171.12 216.924 170.94 216.364 170.58C215.804 170.216 215.374 169.7 215.074 169.032C214.778 168.36 214.63 167.556 214.63 166.62C214.63 165.688 214.778 164.894 215.074 164.238C215.37 163.578 215.798 163.074 216.358 162.726C216.918 162.378 217.592 162.204 218.38 162.204C219.004 162.204 219.558 162.332 220.042 162.588C220.526 162.844 220.914 163.188 221.206 163.62C221.502 164.052 221.678 164.53 221.734 165.054H220.366C220.306 164.726 220.19 164.43 220.018 164.166C219.85 163.898 219.626 163.688 219.346 163.536C219.066 163.38 218.734 163.302 218.35 163.302C217.858 163.302 217.44 163.418 217.096 163.65C216.752 163.882 216.49 164.244 216.31 164.736C216.134 165.228 216.046 165.862 216.046 166.638C216.046 167.81 216.244 168.668 216.64 169.212C217.036 169.752 217.606 170.022 218.35 170.022C218.734 170.022 219.066 169.94 219.346 169.776C219.626 169.608 219.85 169.386 220.018 169.11C220.19 168.83 220.306 168.526 220.366 168.198H221.734C221.686 168.578 221.586 168.944 221.434 169.296C221.282 169.644 221.07 169.956 220.798 170.232C220.53 170.508 220.196 170.726 219.796 170.886C219.396 171.042 218.924 171.12 218.38 171.12ZM224.95 171.12C224.55 171.12 224.194 171.048 223.882 170.904C223.574 170.76 223.332 170.552 223.156 170.28C222.98 170.008 222.892 169.68 222.892 169.296C222.892 168.608 223.134 168.094 223.618 167.754C224.106 167.414 224.886 167.234 225.958 167.214L226.978 167.184V166.734C226.978 166.378 226.872 166.098 226.66 165.894C226.448 165.69 226.12 165.59 225.676 165.594C225.348 165.594 225.054 165.67 224.794 165.822C224.534 165.974 224.364 166.224 224.284 166.572H223.174C223.198 166.16 223.316 165.814 223.528 165.534C223.744 165.25 224.04 165.036 224.416 164.892C224.792 164.748 225.232 164.676 225.736 164.676C226.304 164.676 226.77 164.754 227.134 164.91C227.498 165.062 227.768 165.286 227.944 165.582C228.124 165.878 228.214 166.238 228.214 166.662V171H227.122L227.026 169.86C226.794 170.336 226.5 170.666 226.144 170.85C225.788 171.03 225.39 171.12 224.95 171.12ZM225.352 170.226C225.548 170.226 225.742 170.192 225.934 170.124C226.126 170.052 226.3 169.956 226.456 169.836C226.612 169.712 226.736 169.574 226.828 169.422C226.924 169.27 226.974 169.114 226.978 168.954V167.928L226.138 167.946C225.71 167.95 225.346 167.994 225.046 168.078C224.75 168.162 224.522 168.292 224.362 168.468C224.206 168.644 224.128 168.878 224.128 169.17C224.128 169.502 224.242 169.762 224.47 169.95C224.702 170.134 224.996 170.226 225.352 170.226ZM229.92 171V164.796H231.15V166.068C231.254 165.764 231.398 165.51 231.582 165.306C231.77 165.098 231.988 164.942 232.236 164.838C232.484 164.73 232.746 164.676 233.022 164.676C233.106 164.676 233.186 164.682 233.262 164.694C233.338 164.702 233.398 164.718 233.442 164.742V165.978C233.39 165.954 233.322 165.938 233.238 165.93C233.158 165.922 233.088 165.916 233.028 165.912C232.756 165.892 232.508 165.906 232.284 165.954C232.06 166.002 231.866 166.082 231.702 166.194C231.542 166.306 231.418 166.452 231.33 166.632C231.246 166.812 231.204 167.024 231.204 167.268V171H229.92ZM236.953 171.12C236.141 171.12 235.499 170.842 235.027 170.286C234.559 169.726 234.325 168.92 234.325 167.868C234.325 167.224 234.419 166.664 234.607 166.188C234.799 165.708 235.081 165.336 235.453 165.072C235.825 164.808 236.289 164.676 236.845 164.676C237.121 164.676 237.369 164.71 237.589 164.778C237.809 164.846 238.001 164.934 238.165 165.042C238.329 165.15 238.467 165.266 238.579 165.39C238.691 165.514 238.775 165.63 238.831 165.738V162.084H240.127V171H239.161L239.017 169.728C238.973 169.864 238.905 170.012 238.813 170.172C238.725 170.332 238.601 170.484 238.441 170.628C238.285 170.772 238.085 170.89 237.841 170.982C237.597 171.074 237.301 171.12 236.953 171.12ZM237.199 170.154C237.775 170.154 238.191 169.974 238.447 169.614C238.703 169.25 238.831 168.654 238.831 167.826C238.827 167.358 238.769 166.962 238.657 166.638C238.549 166.314 238.377 166.07 238.141 165.906C237.909 165.738 237.603 165.654 237.223 165.654C236.747 165.654 236.357 165.826 236.053 166.17C235.753 166.51 235.603 167.062 235.603 167.826C235.603 168.578 235.739 169.154 236.011 169.554C236.287 169.954 236.683 170.154 237.199 170.154ZM246.999 171.12C246.187 171.12 245.545 170.842 245.073 170.286C244.605 169.726 244.371 168.92 244.371 167.868C244.371 167.224 244.465 166.664 244.653 166.188C244.845 165.708 245.127 165.336 245.499 165.072C245.871 164.808 246.335 164.676 246.891 164.676C247.167 164.676 247.415 164.71 247.635 164.778C247.855 164.846 248.047 164.934 248.211 165.042C248.375 165.15 248.513 165.266 248.625 165.39C248.737 165.514 248.821 165.63 248.877 165.738V162.084H250.173V171H249.207L249.063 169.728C249.019 169.864 248.951 170.012 248.859 170.172C248.771 170.332 248.647 170.484 248.487 170.628C248.331 170.772 248.131 170.89 247.887 170.982C247.643 171.074 247.347 171.12 246.999 171.12ZM247.245 170.154C247.821 170.154 248.237 169.974 248.493 169.614C248.749 169.25 248.877 168.654 248.877 167.826C248.873 167.358 248.815 166.962 248.703 166.638C248.595 166.314 248.423 166.07 248.187 165.906C247.955 165.738 247.649 165.654 247.269 165.654C246.793 165.654 246.403 165.826 246.099 166.17C245.799 166.51 245.649 167.062 245.649 167.826C245.649 168.578 245.785 169.154 246.057 169.554C246.333 169.954 246.729 170.154 247.245 170.154ZM254.656 171.12C254.068 171.12 253.55 170.994 253.102 170.742C252.654 170.486 252.304 170.122 252.052 169.65C251.804 169.178 251.68 168.616 251.68 167.964C251.68 167.32 251.794 166.752 252.022 166.26C252.25 165.764 252.58 165.376 253.012 165.096C253.444 164.816 253.964 164.676 254.572 164.676C255.168 164.676 255.672 164.804 256.084 165.06C256.496 165.316 256.808 165.676 257.02 166.14C257.232 166.6 257.338 167.144 257.338 167.772V168.198H252.97C252.966 168.57 253.026 168.904 253.15 169.2C253.274 169.492 253.458 169.724 253.702 169.896C253.95 170.064 254.258 170.148 254.626 170.148C254.998 170.148 255.318 170.064 255.586 169.896C255.858 169.728 256.036 169.478 256.12 169.146H257.308C257.236 169.57 257.066 169.93 256.798 170.226C256.53 170.522 256.208 170.746 255.832 170.898C255.456 171.046 255.064 171.12 254.656 171.12ZM252.97 167.364H256.114C256.114 167.04 256.058 166.746 255.946 166.482C255.834 166.214 255.662 166.004 255.43 165.852C255.202 165.696 254.914 165.618 254.566 165.618C254.21 165.618 253.914 165.704 253.678 165.876C253.442 166.048 253.264 166.268 253.144 166.536C253.028 166.804 252.97 167.08 252.97 167.364ZM260.984 171.042C260.524 171.042 260.168 170.98 259.916 170.856C259.664 170.732 259.488 170.554 259.388 170.322C259.288 170.086 259.238 169.802 259.238 169.47V165.72H258.23V164.796H259.28L259.592 162.972H260.528V164.79H261.92V165.72H260.528L260.534 169.422C260.534 169.626 260.554 169.776 260.594 169.872C260.638 169.964 260.71 170.024 260.81 170.052C260.914 170.076 261.054 170.088 261.23 170.088H261.95V170.922C261.874 170.954 261.756 170.982 261.596 171.006C261.44 171.03 261.236 171.042 260.984 171.042ZM265.155 171.12C264.755 171.12 264.399 171.048 264.087 170.904C263.779 170.76 263.537 170.552 263.361 170.28C263.185 170.008 263.097 169.68 263.097 169.296C263.097 168.608 263.339 168.094 263.823 167.754C264.311 167.414 265.091 167.234 266.163 167.214L267.183 167.184V166.734C267.183 166.378 267.077 166.098 266.865 165.894C266.653 165.69 266.325 165.59 265.881 165.594C265.553 165.594 265.259 165.67 264.999 165.822C264.739 165.974 264.569 166.224 264.489 166.572H263.379C263.403 166.16 263.521 165.814 263.733 165.534C263.949 165.25 264.245 165.036 264.621 164.892C264.997 164.748 265.437 164.676 265.941 164.676C266.509 164.676 266.975 164.754 267.339 164.91C267.703 165.062 267.973 165.286 268.149 165.582C268.329 165.878 268.419 166.238 268.419 166.662V171H267.327L267.231 169.86C266.999 170.336 266.705 170.666 266.349 170.85C265.993 171.03 265.595 171.12 265.155 171.12ZM265.557 170.226C265.753 170.226 265.947 170.192 266.139 170.124C266.331 170.052 266.505 169.956 266.661 169.836C266.817 169.712 266.941 169.574 267.033 169.422C267.129 169.27 267.179 169.114 267.183 168.954V167.928L266.343 167.946C265.915 167.95 265.551 167.994 265.251 168.078C264.955 168.162 264.727 168.292 264.567 168.468C264.411 168.644 264.333 168.878 264.333 169.17C264.333 169.502 264.447 169.762 264.675 169.95C264.907 170.134 265.201 170.226 265.557 170.226ZM270.155 171V164.796H271.391V171H270.155ZM270.125 163.596V162.33H271.415V163.596H270.125ZM274.97 171.084C274.602 171.084 274.306 171.036 274.082 170.94C273.862 170.844 273.694 170.716 273.578 170.556C273.462 170.392 273.384 170.208 273.344 170.004C273.308 169.796 273.29 169.582 273.29 169.362V162.084H274.556V169.23C274.556 169.518 274.612 169.738 274.724 169.89C274.84 170.042 275.016 170.128 275.252 170.148L275.576 170.16V170.976C275.476 171.008 275.372 171.034 275.264 171.054C275.16 171.074 275.062 171.084 274.97 171.084ZM279.223 171.12C278.791 171.12 278.385 171.052 278.005 170.916C277.629 170.78 277.313 170.566 277.057 170.274C276.805 169.982 276.647 169.608 276.583 169.152H277.729C277.781 169.388 277.879 169.584 278.023 169.74C278.171 169.892 278.347 170.006 278.551 170.082C278.759 170.154 278.981 170.19 279.217 170.19C279.609 170.19 279.927 170.12 280.171 169.98C280.415 169.836 280.537 169.616 280.537 169.32C280.537 169.108 280.471 168.938 280.339 168.81C280.207 168.682 280.001 168.588 279.721 168.528L278.485 168.234C277.973 168.114 277.563 167.924 277.255 167.664C276.947 167.4 276.791 167.032 276.787 166.56C276.787 166.196 276.877 165.872 277.057 165.588C277.241 165.304 277.513 165.082 277.873 164.922C278.237 164.758 278.685 164.676 279.217 164.676C279.917 164.676 280.479 164.832 280.903 165.144C281.331 165.456 281.551 165.908 281.563 166.5H280.453C280.413 166.216 280.283 165.994 280.063 165.834C279.847 165.67 279.561 165.588 279.205 165.588C278.837 165.588 278.535 165.662 278.299 165.81C278.063 165.954 277.945 166.176 277.945 166.476C277.945 166.68 278.031 166.842 278.203 166.962C278.379 167.078 278.637 167.174 278.977 167.25L280.153 167.544C280.457 167.624 280.707 167.73 280.903 167.862C281.099 167.99 281.253 168.132 281.365 168.288C281.477 168.444 281.555 168.606 281.599 168.774C281.647 168.942 281.671 169.1 281.671 169.248C281.671 169.64 281.571 169.976 281.371 170.256C281.175 170.532 280.895 170.746 280.531 170.898C280.167 171.046 279.731 171.12 279.223 171.12Z" fill="#020617" fill-opacity="0.35"/>
<path d="M214.5 185C214.5 181.962 216.962 179.5 220 179.5H404C407.038 179.5 409.5 181.962 409.5 185V209C409.5 212.038 407.038 214.5 404 214.5H220C216.962 214.5 214.5 212.038 214.5 209V185Z" fill="white"/>
<path d="M214.5 185C214.5 181.962 216.962 179.5 220 179.5H404C407.038 179.5 409.5 181.962 409.5 185V209C409.5 212.038 407.038 214.5 404 214.5H220C216.962 214.5 214.5 212.038 214.5 209V185Z" stroke="url(#paint9_linear_8013_59)"/>
<g clip-path="url(#clip1_8013_59)">
<path d="M242 187H222V207H242V187Z" fill="#4F868E"/>
<path d="M234.033 193.737C233.641 193.739 233.253 193.831 232.901 194.005C232.549 194.179 232.241 194.43 232 194.741C231.759 194.431 231.451 194.179 231.099 194.005C230.747 193.831 230.36 193.74 229.968 193.737C228.503 193.737 227.312 194.997 227.312 196.548V199.622C227.312 199.788 227.378 199.947 227.496 200.064C227.613 200.181 227.772 200.247 227.938 200.247C228.103 200.247 228.262 200.181 228.379 200.064C228.497 199.947 228.562 199.788 228.562 199.622V196.546C228.562 195.684 229.195 194.984 229.972 194.984C230.749 194.984 231.381 195.686 231.381 196.546V199.62C231.381 199.786 231.447 199.945 231.564 200.062C231.682 200.179 231.84 200.245 232.006 200.245C232.172 200.245 232.331 200.179 232.448 200.062C232.565 199.945 232.631 199.786 232.631 199.62V196.546C232.631 195.684 233.264 194.984 234.041 194.984C234.818 194.984 235.45 195.686 235.45 196.546V199.62C235.45 199.786 235.516 199.945 235.633 200.062C235.75 200.179 235.909 200.245 236.075 200.245C236.241 200.245 236.4 200.179 236.517 200.062C236.634 199.945 236.7 199.786 236.7 199.62V196.546C236.689 194.997 235.498 193.737 234.033 193.737Z" fill="white"/>
<path d="M232 189.18C229.929 189.183 227.943 190.006 226.478 191.47C225.014 192.935 224.19 194.92 224.188 196.99C224.19 199.061 225.014 201.046 226.478 202.51C227.943 203.974 229.929 204.798 232 204.8C234.071 204.798 236.057 203.974 237.522 202.51C238.986 201.046 239.81 199.061 239.812 196.99C239.81 194.92 238.986 192.935 237.522 191.47C236.057 190.006 234.071 189.183 232 189.18ZM232 204.488C230.012 204.486 228.105 203.695 226.699 202.289C225.293 200.884 224.502 198.978 224.5 196.99C224.502 195.002 225.293 193.097 226.699 191.691C228.105 190.285 230.012 189.495 232 189.493C233.988 189.495 235.895 190.285 237.301 191.691C238.707 193.097 239.498 195.002 239.5 196.99C239.498 198.978 238.707 200.884 237.301 202.289C235.895 203.695 233.988 204.486 232 204.488Z" fill="white"/>
</g>
<path d="M250.581 202L254.242 191.878H255.705L259.366 202H258.043L257.049 199.228H252.898L251.897 202H250.581ZM253.241 198.038H256.692L254.97 193.145L253.241 198.038ZM263.617 202.14C263.239 202.135 262.882 202.082 262.546 201.979C262.215 201.872 261.921 201.715 261.664 201.51C261.408 201.305 261.205 201.05 261.055 200.747C260.911 200.439 260.838 200.082 260.838 199.676V194.762H262.133V199.543C262.133 200.014 262.278 200.397 262.567 200.691C262.861 200.985 263.302 201.132 263.89 201.132C264.422 201.132 264.849 200.994 265.171 200.719C265.498 200.439 265.661 200.024 265.661 199.473V194.762H266.949V202H265.92L265.787 200.614C265.699 200.978 265.547 201.272 265.332 201.496C265.122 201.72 264.868 201.886 264.569 201.993C264.275 202.096 263.958 202.145 263.617 202.14ZM271.801 202.035C271.302 202.035 270.915 201.967 270.639 201.832C270.364 201.697 270.17 201.496 270.058 201.23C269.951 200.964 269.897 200.637 269.897 200.25V195.707H268.721V194.762H269.932L270.247 192.655H271.199V194.755H272.83V195.707H271.199V200.208C271.199 200.465 271.225 200.654 271.276 200.775C271.332 200.892 271.423 200.966 271.549 200.999C271.675 201.032 271.853 201.048 272.081 201.048H272.872V201.916C272.784 201.949 272.648 201.977 272.466 202C272.289 202.023 272.067 202.035 271.801 202.035ZM277.366 202.14C276.699 202.14 276.116 201.998 275.616 201.713C275.122 201.424 274.737 201.001 274.461 200.446C274.186 199.891 274.048 199.212 274.048 198.409C274.048 197.653 274.177 196.99 274.433 196.421C274.69 195.852 275.066 195.411 275.56 195.098C276.055 194.781 276.659 194.622 277.373 194.622C278.041 194.622 278.619 194.769 279.109 195.063C279.599 195.352 279.98 195.779 280.25 196.344C280.526 196.909 280.663 197.597 280.663 198.409C280.663 199.146 280.537 199.795 280.285 200.355C280.033 200.915 279.662 201.354 279.172 201.671C278.687 201.984 278.085 202.14 277.366 202.14ZM277.373 201.118C277.803 201.118 278.167 201.008 278.465 200.789C278.764 200.57 278.99 200.255 279.144 199.844C279.303 199.433 279.382 198.946 279.382 198.381C279.382 197.863 279.312 197.399 279.172 196.988C279.037 196.573 278.822 196.244 278.528 196.001C278.234 195.758 277.849 195.637 277.373 195.637C276.935 195.637 276.564 195.747 276.26 195.966C275.957 196.181 275.726 196.493 275.567 196.904C275.413 197.315 275.336 197.807 275.336 198.381C275.336 198.89 275.404 199.352 275.539 199.767C275.679 200.182 275.899 200.511 276.197 200.754C276.501 200.997 276.893 201.118 277.373 201.118ZM283.092 202V195.707H281.559V194.762H283.092V193.642C283.092 193.068 283.237 192.632 283.526 192.333C283.82 192.03 284.259 191.878 284.842 191.878H286.207L286.214 192.795H285.136C284.838 192.795 284.635 192.874 284.527 193.033C284.42 193.192 284.366 193.432 284.366 193.754V194.762H286.144V195.707H284.387V202H283.092ZM287.705 202V194.762H288.958V202H287.705ZM287.67 193.229V191.885H288.993V193.229H287.67ZM293.115 202.091C292.723 202.091 292.406 202.037 292.163 201.93C291.925 201.823 291.741 201.678 291.61 201.496C291.484 201.314 291.398 201.106 291.351 200.873C291.309 200.635 291.288 200.39 291.288 200.138V191.598H292.562V200.012C292.562 200.376 292.632 200.649 292.772 200.831C292.917 201.013 293.118 201.113 293.374 201.132L293.766 201.139V201.979C293.659 202.012 293.547 202.037 293.43 202.056C293.314 202.079 293.209 202.091 293.115 202.091ZM297.218 202.091C296.826 202.091 296.509 202.037 296.266 201.93C296.028 201.823 295.844 201.678 295.713 201.496C295.587 201.314 295.501 201.106 295.454 200.873C295.412 200.635 295.391 200.39 295.391 200.138V191.598H296.665V200.012C296.665 200.376 296.735 200.649 296.875 200.831C297.02 201.013 297.221 201.113 297.477 201.132L297.869 201.139V201.979C297.762 202.012 297.65 202.037 297.533 202.056C297.417 202.079 297.312 202.091 297.218 202.091ZM302.417 202.14C301.745 202.14 301.152 201.993 300.639 201.699C300.126 201.405 299.724 200.983 299.435 200.432C299.146 199.881 299.001 199.221 299.001 198.451C299.001 197.69 299.132 197.023 299.393 196.449C299.654 195.875 300.032 195.427 300.527 195.105C301.026 194.783 301.626 194.622 302.326 194.622C303.007 194.622 303.584 194.769 304.055 195.063C304.526 195.357 304.883 195.772 305.126 196.309C305.373 196.841 305.497 197.473 305.497 198.206V198.682H300.31C300.31 199.139 300.385 199.555 300.534 199.928C300.688 200.297 300.919 200.591 301.227 200.81C301.535 201.029 301.925 201.139 302.396 201.139C302.858 201.139 303.255 201.032 303.586 200.817C303.922 200.602 304.137 200.292 304.23 199.886H305.448C305.364 200.376 305.168 200.789 304.86 201.125C304.557 201.461 304.19 201.715 303.761 201.888C303.336 202.056 302.888 202.14 302.417 202.14ZM300.317 197.807H304.251C304.251 197.392 304.181 197.018 304.041 196.687C303.901 196.351 303.686 196.087 303.397 195.896C303.112 195.7 302.753 195.602 302.319 195.602C301.866 195.602 301.491 195.712 301.192 195.931C300.893 196.146 300.672 196.423 300.527 196.764C300.382 197.1 300.312 197.448 300.317 197.807ZM309.997 202.14C309.054 202.14 308.307 201.818 307.757 201.174C307.211 200.53 306.938 199.59 306.938 198.353C306.938 197.602 307.047 196.946 307.267 196.386C307.486 195.826 307.815 195.392 308.254 195.084C308.692 194.776 309.238 194.622 309.892 194.622C310.242 194.622 310.55 194.666 310.816 194.755C311.082 194.844 311.313 194.956 311.509 195.091C311.705 195.226 311.863 195.366 311.985 195.511C312.111 195.656 312.204 195.789 312.265 195.91V191.598H313.574V202H312.58L312.44 200.516C312.393 200.656 312.318 200.819 312.216 201.006C312.113 201.188 311.968 201.368 311.782 201.545C311.6 201.718 311.362 201.86 311.068 201.972C310.774 202.084 310.417 202.14 309.997 202.14ZM310.228 201.146C310.956 201.146 311.476 200.924 311.789 200.481C312.106 200.033 312.265 199.303 312.265 198.29C312.26 197.725 312.19 197.245 312.055 196.848C311.919 196.451 311.705 196.15 311.411 195.945C311.121 195.735 310.734 195.63 310.249 195.63C309.656 195.63 309.173 195.842 308.8 196.267C308.426 196.692 308.24 197.366 308.24 198.29C308.24 199.195 308.408 199.898 308.744 200.397C309.08 200.896 309.574 201.146 310.228 201.146ZM320.706 202L318.466 194.762H319.67L321.322 200.327H321.434L323.065 194.762H324.045L325.739 200.313H325.858L327.44 194.762H328.658L326.46 202H325.186L323.541 196.659L321.966 202H320.706ZM330.202 202V194.762H331.455V202H330.202ZM330.167 193.229V191.885H331.49V193.229H330.167ZM336.349 202.035C335.85 202.035 335.462 201.967 335.187 201.832C334.912 201.697 334.718 201.496 334.606 201.23C334.499 200.964 334.445 200.637 334.445 200.25V195.707H333.269V194.762H334.48L334.795 192.655H335.747V194.755H337.378V195.707H335.747V200.208C335.747 200.465 335.773 200.654 335.824 200.775C335.88 200.892 335.971 200.966 336.097 200.999C336.223 201.032 336.4 201.048 336.629 201.048H337.42V201.916C337.331 201.949 337.196 201.977 337.014 202C336.837 202.023 336.615 202.035 336.349 202.035ZM339.208 202V191.598H340.468V195.826C340.589 195.625 340.752 195.439 340.958 195.266C341.163 195.089 341.413 194.946 341.707 194.839C342.001 194.727 342.341 194.671 342.729 194.671C343.2 194.671 343.627 194.76 344.01 194.937C344.392 195.11 344.696 195.357 344.92 195.679C345.144 196.001 345.256 196.384 345.256 196.827V202H343.961V197.086C343.961 196.652 343.811 196.318 343.513 196.085C343.219 195.847 342.834 195.728 342.358 195.728C342.036 195.728 341.732 195.782 341.448 195.889C341.163 195.992 340.932 196.15 340.755 196.365C340.582 196.575 340.496 196.843 340.496 197.17V202H339.208ZM351.084 202V191.878H352.876L355.928 200.236L359.022 191.878H360.807V202H359.47V193.817L356.537 202H355.326L352.414 193.894V202H351.084ZM366.252 202.14C365.58 202.14 364.987 201.993 364.474 201.699C363.961 201.405 363.559 200.983 363.27 200.432C362.981 199.881 362.836 199.221 362.836 198.451C362.836 197.69 362.967 197.023 363.228 196.449C363.489 195.875 363.867 195.427 364.362 195.105C364.861 194.783 365.461 194.622 366.161 194.622C366.842 194.622 367.419 194.769 367.89 195.063C368.361 195.357 368.718 195.772 368.961 196.309C369.208 196.841 369.332 197.473 369.332 198.206V198.682H364.145C364.145 199.139 364.22 199.555 364.369 199.928C364.523 200.297 364.754 200.591 365.062 200.81C365.37 201.029 365.76 201.139 366.231 201.139C366.693 201.139 367.09 201.032 367.421 200.817C367.757 200.602 367.972 200.292 368.065 199.886H369.283C369.199 200.376 369.003 200.789 368.695 201.125C368.392 201.461 368.025 201.715 367.596 201.888C367.171 202.056 366.723 202.14 366.252 202.14ZM364.152 197.807H368.086C368.086 197.392 368.016 197.018 367.876 196.687C367.736 196.351 367.521 196.087 367.232 195.896C366.947 195.7 366.588 195.602 366.154 195.602C365.701 195.602 365.326 195.712 365.027 195.931C364.728 196.146 364.507 196.423 364.362 196.764C364.217 197.1 364.147 197.448 364.152 197.807ZM374.252 202.14C373.58 202.14 372.987 201.993 372.474 201.699C371.96 201.405 371.559 200.983 371.27 200.432C370.98 199.881 370.836 199.221 370.836 198.451C370.836 197.69 370.966 197.023 371.228 196.449C371.489 195.875 371.867 195.427 372.362 195.105C372.861 194.783 373.461 194.622 374.161 194.622C374.842 194.622 375.418 194.769 375.89 195.063C376.361 195.357 376.718 195.772 376.961 196.309C377.208 196.841 377.332 197.473 377.332 198.206V198.682H372.145C372.145 199.139 372.219 199.555 372.369 199.928C372.523 200.297 372.754 200.591 373.062 200.81C373.37 201.029 373.759 201.139 374.231 201.139C374.693 201.139 375.089 201.032 375.421 200.817C375.757 200.602 375.971 200.292 376.065 199.886H377.283C377.199 200.376 377.003 200.789 376.695 201.125C376.391 201.461 376.025 201.715 375.596 201.888C375.171 202.056 374.723 202.14 374.252 202.14ZM372.152 197.807H376.086C376.086 197.392 376.016 197.018 375.876 196.687C375.736 196.351 375.521 196.087 375.232 195.896C374.947 195.7 374.588 195.602 374.154 195.602C373.701 195.602 373.325 195.712 373.027 195.931C372.728 196.146 372.506 196.423 372.362 196.764C372.217 197.1 372.147 197.448 372.152 197.807Z" fill="#475569"/>
<path d="M214.5 239C214.5 234.858 217.858 231.5 222 231.5H402C406.142 231.5 409.5 234.858 409.5 239V257C409.5 261.142 406.142 264.5 402 264.5H222C217.858 264.5 214.5 261.142 214.5 257V239Z" stroke="#020617" stroke-opacity="0.15"/>
<path d="M300.725 253V242.878H304.316C305.044 242.878 305.695 243.004 306.269 243.256C306.848 243.503 307.303 243.87 307.634 244.355C307.965 244.84 308.131 245.438 308.131 246.147C308.131 246.814 307.979 247.386 307.676 247.862C307.377 248.338 306.96 248.702 306.423 248.954C305.886 249.206 305.259 249.332 304.54 249.332H302.454V253H300.725ZM302.44 247.967H304.498C305.091 247.967 305.574 247.79 305.947 247.435C306.325 247.08 306.514 246.618 306.514 246.049C306.514 245.47 306.318 245.022 305.926 244.705C305.534 244.383 305.042 244.222 304.449 244.222H302.44V247.967ZM311.488 253.14C311.026 253.14 310.611 253.056 310.242 252.888C309.878 252.715 309.591 252.47 309.381 252.153C309.176 251.831 309.073 251.441 309.073 250.984C309.073 250.186 309.36 249.584 309.934 249.178C310.513 248.772 311.432 248.56 312.692 248.541L313.777 248.513V248.023C313.777 247.64 313.663 247.342 313.434 247.127C313.21 246.908 312.86 246.8 312.384 246.805C312.03 246.81 311.708 246.894 311.418 247.057C311.129 247.216 310.938 247.484 310.844 247.862H309.395C309.423 247.367 309.566 246.954 309.822 246.623C310.084 246.287 310.441 246.037 310.893 245.874C311.346 245.706 311.869 245.622 312.461 245.622C313.152 245.622 313.714 245.713 314.148 245.895C314.582 246.077 314.902 246.341 315.107 246.686C315.313 247.027 315.415 247.44 315.415 247.925V253H313.98L313.84 251.698C313.584 252.244 313.255 252.622 312.853 252.832C312.457 253.037 312.002 253.14 311.488 253.14ZM312.041 251.985C312.251 251.985 312.459 251.948 312.664 251.873C312.87 251.794 313.054 251.689 313.217 251.558C313.385 251.423 313.518 251.273 313.616 251.11C313.719 250.947 313.773 250.776 313.777 250.599V249.458L312.888 249.472C312.45 249.477 312.065 249.523 311.733 249.612C311.407 249.701 311.152 249.843 310.97 250.039C310.788 250.23 310.697 250.487 310.697 250.809C310.697 251.178 310.826 251.467 311.082 251.677C311.339 251.882 311.659 251.985 312.041 251.985ZM317.998 255.31C317.532 255.31 317.207 255.273 317.025 255.198C316.843 255.128 316.752 255.093 316.752 255.093V254.001L317.48 254.022C317.774 254.036 318.012 254.02 318.194 253.973C318.381 253.926 318.526 253.861 318.628 253.777C318.731 253.698 318.806 253.611 318.852 253.518C318.904 253.429 318.943 253.352 318.971 253.287L319.16 252.755L316.339 245.762H318.033L319.958 250.879L321.876 245.762H323.542L320.56 253.266C320.336 253.812 320.094 254.232 319.832 254.526C319.576 254.825 319.293 255.03 318.985 255.142C318.682 255.254 318.353 255.31 317.998 255.31Z" fill="#94A3B8"/>
<path d="M572 56C572 52.6863 574.686 50 578 50H586C589.314 50 592 52.6863 592 56V64C592 67.3137 589.314 70 586 70H578C574.686 70 572 67.3137 572 64V56Z" fill="url(#paint10_linear_8013_59)"/>
<path d="M578 47.5C573.306 47.5 569.5 51.3056 569.5 56V64C569.5 68.6944 573.306 72.5 578 72.5H586C590.694 72.5 594.5 68.6944 594.5 64V56C594.5 51.3056 590.694 47.5 586 47.5H578Z" stroke="url(#paint11_linear_8013_59)" stroke-opacity="0.1" stroke-width="5"/>
<path d="M572.5 56C572.5 52.9624 574.962 50.5 578 50.5H586C589.038 50.5 591.5 52.9624 591.5 56V64C591.5 67.0376 589.038 69.5 586 69.5H578C574.962 69.5 572.5 67.0376 572.5 64V56Z" stroke="url(#paint12_linear_8013_59)"/>
<path d="M509 165C509 161.686 511.686 159 515 159H523C526.314 159 529 161.686 529 165V173C529 176.314 526.314 179 523 179H515C511.686 179 509 176.314 509 173V165Z" fill="url(#paint13_linear_8013_59)"/>
<path d="M515 156.5C510.306 156.5 506.5 160.306 506.5 165V173C506.5 177.694 510.306 181.5 515 181.5H523C527.694 181.5 531.5 177.694 531.5 173V165C531.5 160.306 527.694 156.5 523 156.5H515Z" stroke="url(#paint14_linear_8013_59)" stroke-opacity="0.1" stroke-width="5"/>
<path d="M509.5 165C509.5 161.962 511.962 159.5 515 159.5H523C526.038 159.5 528.5 161.962 528.5 165V173C528.5 176.038 526.038 178.5 523 178.5H515C511.962 178.5 509.5 176.038 509.5 173V165Z" stroke="url(#paint15_linear_8013_59)"/>
<path d="M562 252C562 248.686 564.686 246 568 246H576C579.314 246 582 248.686 582 252V260C582 263.314 579.314 266 576 266H568C564.686 266 562 263.314 562 260V252Z" fill="url(#paint16_linear_8013_59)"/>
<path d="M568 243.5C563.306 243.5 559.5 247.306 559.5 252V260C559.5 264.694 563.306 268.5 568 268.5H576C580.694 268.5 584.5 264.694 584.5 260V252C584.5 247.306 580.694 243.5 576 243.5H568Z" stroke="url(#paint17_linear_8013_59)" stroke-opacity="0.1" stroke-width="5"/>
<path d="M562.5 252C562.5 248.962 564.962 246.5 568 246.5H576C579.038 246.5 581.5 248.962 581.5 252V260C581.5 263.038 579.038 265.5 576 265.5H568C564.962 265.5 562.5 263.038 562.5 260V252Z" stroke="url(#paint18_linear_8013_59)"/>
<path d="M103 148C103 144.686 105.686 142 109 142H117C120.314 142 123 144.686 123 148V156C123 159.314 120.314 162 117 162H109C105.686 162 103 159.314 103 156V148Z" fill="url(#paint19_linear_8013_59)"/>
<path d="M109 139.5C104.306 139.5 100.5 143.306 100.5 148V156C100.5 160.694 104.306 164.5 109 164.5H117C121.694 164.5 125.5 160.694 125.5 156V148C125.5 143.306 121.694 139.5 117 139.5H109Z" stroke="url(#paint20_linear_8013_59)" stroke-opacity="0.1" stroke-width="5"/>
<path d="M103.5 148C103.5 144.962 105.962 142.5 109 142.5H117C120.038 142.5 122.5 144.962 122.5 148V156C122.5 159.038 120.038 161.5 117 161.5H109C105.962 161.5 103.5 159.038 103.5 156V148Z" stroke="url(#paint21_linear_8013_59)"/>
<path d="M63 55C63 51.6863 65.6863 49 69 49H77C80.3137 49 83 51.6863 83 55V63C83 66.3137 80.3137 69 77 69H69C65.6863 69 63 66.3137 63 63V55Z" fill="url(#paint22_linear_8013_59)"/>
<path d="M69 46.5C64.3056 46.5 60.5 50.3056 60.5 55V63C60.5 67.6944 64.3056 71.5 69 71.5H77C81.6944 71.5 85.5 67.6944 85.5 63V55C85.5 50.3056 81.6944 46.5 77 46.5H69Z" stroke="url(#paint23_linear_8013_59)" stroke-opacity="0.1" stroke-width="5"/>
<path d="M63.5 55C63.5 51.9624 65.9624 49.5 69 49.5H77C80.0376 49.5 82.5 51.9624 82.5 55V63C82.5 66.0376 80.0376 68.5 77 68.5H69C65.9624 68.5 63.5 66.0376 63.5 63V55Z" stroke="url(#paint24_linear_8013_59)"/>
<path d="M32 235C32 231.686 34.6863 229 38 229H46C49.3137 229 52 231.686 52 235V243C52 246.314 49.3137 249 46 249H38C34.6863 249 32 246.314 32 243V235Z" fill="url(#paint25_linear_8013_59)"/>
<path d="M38 226.5C33.3056 226.5 29.5 230.306 29.5 235V243C29.5 247.694 33.3056 251.5 38 251.5H46C50.6944 251.5 54.5 247.694 54.5 243V235C54.5 230.306 50.6944 226.5 46 226.5H38Z" stroke="url(#paint26_linear_8013_59)" stroke-opacity="0.1" stroke-width="5"/>
<path d="M32.5 235C32.5 231.962 34.9624 229.5 38 229.5H46C49.0376 229.5 51.5 231.962 51.5 235V243C51.5 246.038 49.0376 248.5 46 248.5H38C34.9624 248.5 32.5 246.038 32.5 243V235Z" stroke="url(#paint27_linear_8013_59)"/>
<rect y="205" width="684" height="275" fill="url(#paint28_linear_8013_59)"/>
</g>
<defs>
<filter id="filter0_f_8013_59" x="526" y="52" width="9.40738" height="12" filterUnits="userSpaceOnUse" color-interpolation-filters="sRGB">
<feFlood flood-opacity="0" result="BackgroundImageFix"/>
<feBlend mode="normal" in="SourceGraphic" in2="BackgroundImageFix" result="shape"/>
<feGaussianBlur stdDeviation="1.5" result="effect1_foregroundBlur_8013_59"/>
</filter>
<filter id="filter1_f_8013_59" x="422" y="268.716" width="12" height="9.40723" filterUnits="userSpaceOnUse" color-interpolation-filters="sRGB">
<feFlood flood-opacity="0" result="BackgroundImageFix"/>
<feBlend mode="normal" in="SourceGraphic" in2="BackgroundImageFix" result="shape"/>
<feGaussianBlur stdDeviation="1.5" result="effect1_foregroundBlur_8013_59"/>
</filter>
<filter id="filter2_f_8013_59" x="449" y="157" width="18.5432" height="22" filterUnits="userSpaceOnUse" color-interpolation-filters="sRGB">
<feFlood flood-opacity="0" result="BackgroundImageFix"/>
<feBlend mode="normal" in="SourceGraphic" in2="BackgroundImageFix" result="shape"/>
<feGaussianBlur stdDeviation="3.5" result="effect1_foregroundBlur_8013_59"/>
</filter>
<filter id="filter3_f_8013_59" x="130" y="189" width="9.40741" height="12" filterUnits="userSpaceOnUse" color-interpolation-filters="sRGB">
<feFlood flood-opacity="0" result="BackgroundImageFix"/>
<feBlend mode="normal" in="SourceGraphic" in2="BackgroundImageFix" result="shape"/>
<feGaussianBlur stdDeviation="1.5" result="effect1_foregroundBlur_8013_59"/>
</filter>
<filter id="filter4_f_8013_59" x="170" y="161" width="10.5432" height="14" filterUnits="userSpaceOnUse" color-interpolation-filters="sRGB">
<feFlood flood-opacity="0" result="BackgroundImageFix"/>
<feBlend mode="normal" in="SourceGraphic" in2="BackgroundImageFix" result="shape"/>
<feGaussianBlur stdDeviation="1.5" result="effect1_foregroundBlur_8013_59"/>
</filter>
<filter id="filter5_f_8013_59" x="103.284" y="52" width="9.97528" height="13" filterUnits="userSpaceOnUse" color-interpolation-filters="sRGB">
<feFlood flood-opacity="0" result="BackgroundImageFix"/>
<feBlend mode="normal" in="SourceGraphic" in2="BackgroundImageFix" result="shape"/>
<feGaussianBlur stdDeviation="1.5" result="effect1_foregroundBlur_8013_59"/>
</filter>
<filter id="filter6_f_8013_59" x="497" y="245" width="18.5432" height="22" filterUnits="userSpaceOnUse" color-interpolation-filters="sRGB">
<feFlood flood-opacity="0" result="BackgroundImageFix"/>
<feBlend mode="normal" in="SourceGraphic" in2="BackgroundImageFix" result="shape"/>
<feGaussianBlur stdDeviation="3.5" result="effect1_foregroundBlur_8013_59"/>
</filter>
<linearGradient id="paint0_linear_8013_59" x1="396.999" y1="142" x2="379.127" y2="61.5087" gradientUnits="userSpaceOnUse">
<stop offset="0.17" stop-color="#4F868E"/>
<stop offset="0.61" stop-color="#F26E1D"/>
<stop offset="1" stop-color="white"/>
</linearGradient>
<linearGradient id="paint1_linear_8013_59" x1="187.282" y1="161.977" x2="181.767" y2="153.97" gradientUnits="userSpaceOnUse">
<stop offset="0.17" stop-color="#4F868E"/>
<stop offset="1" stop-color="#BC52AD"/>
</linearGradient>
<linearGradient id="paint2_linear_8013_59" x1="242.732" y1="245.848" x2="252.808" y2="222.449" gradientUnits="userSpaceOnUse">
<stop offset="0.17" stop-color="white"/>
<stop offset="1" stop-color="#F4B62B"/>
</linearGradient>
<linearGradient id="paint3_linear_8013_59" x1="519" y1="168" x2="514.089" y2="144.022" gradientUnits="userSpaceOnUse">
<stop stop-color="#F4B62B"/>
<stop offset="0.83" stop-color="#4F868E"/>
</linearGradient>
<linearGradient id="paint4_linear_8013_59" x1="572" y1="258.588" x2="560.488" y2="201.519" gradientUnits="userSpaceOnUse">
<stop stop-color="#BC52AD"/>
<stop offset="1" stop-color="#4F868E"/>
</linearGradient>
<linearGradient id="paint5_linear_8013_59" x1="179" y1="129.5" x2="191.375" y2="104.566" gradientUnits="userSpaceOnUse">
<stop stop-color="#4F868E"/>
<stop offset="1" stop-color="#F4B62B"/>
</linearGradient>
<linearGradient id="paint6_linear_8013_59" x1="63.5001" y1="236.556" x2="62.6621" y2="210.068" gradientUnits="userSpaceOnUse">
<stop stop-color="#86AD6E"/>
<stop offset="1" stop-color="#4F868E"/>
</linearGradient>
<linearGradient id="paint7_linear_8013_59" x1="239.361" y1="142.688" x2="412.031" y2="310.51" gradientUnits="userSpaceOnUse">
<stop stop-color="#F8FAFC"/>
<stop offset="1" stop-color="white"/>
</linearGradient>
<linearGradient id="paint8_linear_8013_59" x1="192.242" y1="97" x2="452.028" y2="118.162" gradientUnits="userSpaceOnUse">
<stop stop-color="#F4B62B"/>
<stop offset="0.5" stop-color="#BC52AD"/>
<stop offset="1" stop-color="#4F868E"/>
</linearGradient>
<linearGradient id="paint9_linear_8013_59" x1="214.198" y1="179" x2="385.196" y2="264.318" gradientUnits="userSpaceOnUse">
<stop stop-color="#F4B62B"/>
<stop offset="0.5" stop-color="#BC52AD"/>
<stop offset="1" stop-color="#4F868E"/>
</linearGradient>
<linearGradient id="paint10_linear_8013_59" x1="575.947" y1="53.3843" x2="588.691" y2="67.3195" gradientUnits="userSpaceOnUse">
<stop stop-color="#E2E8F0"/>
<stop offset="1" stop-color="white"/>
</linearGradient>
<linearGradient id="paint11_linear_8013_59" x1="572.02" y1="50" x2="593.631" y2="51.9805" gradientUnits="userSpaceOnUse">
<stop stop-color="#4F868E"/>
<stop offset="0.5" stop-color="#BC52AD"/>
<stop offset="1" stop-color="#F4B62B"/>
</linearGradient>
<linearGradient id="paint12_linear_8013_59" x1="572.02" y1="50" x2="593.631" y2="51.9805" gradientUnits="userSpaceOnUse">
<stop stop-color="#4F868E"/>
<stop offset="0.5" stop-color="#BC52AD"/>
<stop offset="1" stop-color="#F4B62B"/>
</linearGradient>
<linearGradient id="paint13_linear_8013_59" x1="512.947" y1="162.384" x2="525.691" y2="176.32" gradientUnits="userSpaceOnUse">
<stop stop-color="#E2E8F0"/>
<stop offset="1" stop-color="white"/>
</linearGradient>
<linearGradient id="paint14_linear_8013_59" x1="509.02" y1="159" x2="530.631" y2="160.98" gradientUnits="userSpaceOnUse">
<stop stop-color="#4F868E"/>
<stop offset="0.5" stop-color="#BC52AD"/>
<stop offset="1" stop-color="#F4B62B"/>
</linearGradient>
<linearGradient id="paint15_linear_8013_59" x1="509.02" y1="159" x2="530.631" y2="160.98" gradientUnits="userSpaceOnUse">
<stop stop-color="#4F868E"/>
<stop offset="0.5" stop-color="#BC52AD"/>
<stop offset="1" stop-color="#F4B62B"/>
</linearGradient>
<linearGradient id="paint16_linear_8013_59" x1="565.947" y1="249.384" x2="578.691" y2="263.32" gradientUnits="userSpaceOnUse">
<stop stop-color="#E2E8F0"/>
<stop offset="1" stop-color="white"/>
</linearGradient>
<linearGradient id="paint17_linear_8013_59" x1="562.02" y1="246" x2="583.631" y2="247.98" gradientUnits="userSpaceOnUse">
<stop stop-color="#4F868E"/>
<stop offset="0.5" stop-color="#BC52AD"/>
<stop offset="1" stop-color="#F4B62B"/>
</linearGradient>
<linearGradient id="paint18_linear_8013_59" x1="562.02" y1="246" x2="583.631" y2="247.98" gradientUnits="userSpaceOnUse">
<stop stop-color="#4F868E"/>
<stop offset="0.5" stop-color="#BC52AD"/>
<stop offset="1" stop-color="#F4B62B"/>
</linearGradient>
<linearGradient id="paint19_linear_8013_59" x1="106.947" y1="145.384" x2="119.691" y2="159.32" gradientUnits="userSpaceOnUse">
<stop stop-color="#E2E8F0"/>
<stop offset="1" stop-color="white"/>
</linearGradient>
<linearGradient id="paint20_linear_8013_59" x1="103.02" y1="142" x2="124.631" y2="143.98" gradientUnits="userSpaceOnUse">
<stop stop-color="#F4B62B"/>
<stop offset="0.5" stop-color="#BC52AD"/>
<stop offset="1" stop-color="#4F868E"/>
</linearGradient>
<linearGradient id="paint21_linear_8013_59" x1="103.02" y1="142" x2="124.631" y2="143.98" gradientUnits="userSpaceOnUse">
<stop stop-color="#F4B62B"/>
<stop offset="0.5" stop-color="#BC52AD"/>
<stop offset="1" stop-color="#4F868E"/>
</linearGradient>
<linearGradient id="paint22_linear_8013_59" x1="66.9467" y1="52.3843" x2="79.6915" y2="66.3195" gradientUnits="userSpaceOnUse">
<stop stop-color="#E2E8F0"/>
<stop offset="1" stop-color="white"/>
</linearGradient>
<linearGradient id="paint23_linear_8013_59" x1="63.0202" y1="49" x2="84.6312" y2="50.9805" gradientUnits="userSpaceOnUse">
<stop stop-color="#F4B62B"/>
<stop offset="0.5" stop-color="#BC52AD"/>
<stop offset="1" stop-color="#4F868E"/>
</linearGradient>
<linearGradient id="paint24_linear_8013_59" x1="63.0202" y1="49" x2="84.6312" y2="50.9805" gradientUnits="userSpaceOnUse">
<stop stop-color="#F4B62B"/>
<stop offset="0.5" stop-color="#BC52AD"/>
<stop offset="1" stop-color="#4F868E"/>
</linearGradient>
<linearGradient id="paint25_linear_8013_59" x1="35.9467" y1="232.384" x2="48.6915" y2="246.32" gradientUnits="userSpaceOnUse">
<stop stop-color="#E2E8F0"/>
<stop offset="1" stop-color="white"/>
</linearGradient>
<linearGradient id="paint26_linear_8013_59" x1="32.0202" y1="229" x2="53.6312" y2="230.98" gradientUnits="userSpaceOnUse">
<stop stop-color="#F4B62B"/>
<stop offset="0.5" stop-color="#BC52AD"/>
<stop offset="1" stop-color="#4F868E"/>
</linearGradient>
<linearGradient id="paint27_linear_8013_59" x1="32.0202" y1="229" x2="53.6312" y2="230.98" gradientUnits="userSpaceOnUse">
<stop stop-color="#F4B62B"/>
<stop offset="0.5" stop-color="#BC52AD"/>
<stop offset="1" stop-color="#4F868E"/>
</linearGradient>
<linearGradient id="paint28_linear_8013_59" x1="342" y1="257.448" x2="342" y2="338.956" gradientUnits="userSpaceOnUse">
<stop stop-color="white" stop-opacity="0"/>
<stop offset="1" stop-color="white"/>
</linearGradient>
<clipPath id="clip0_8013_59">
<rect width="624" height="480" fill="white"/>
</clipPath>
<clipPath id="clip1_8013_59">
<rect x="222" y="187" width="20" height="20" rx="3" fill="white"/>
</clipPath>
</defs>
</svg>
